<svg width="517" height="185" viewBox="0 0 517 185" fill="none" xmlns="http://www.w3.org/2000/svg">
<path d="M187 0.796252H203.778V28.8641H203.977L219.656 0.796252H237.732L219.057 31.4519L240.029 71.8616H221.154L208.272 45.0877L203.778 51.9553V71.8616H187V0.796252Z" fill="black"/>
<path d="M262.948 73.255C258.022 73.255 254.06 72.5583 251.064 71.1649C248.135 69.7051 245.905 67.7145 244.373 65.193C242.842 62.6715 241.843 59.7188 241.377 56.3347C240.911 52.8843 240.678 49.1353 240.678 45.0877C240.678 41.0401 240.945 37.2911 241.477 33.8406C242.076 30.3902 243.175 27.4043 244.773 24.8828C246.437 22.295 248.701 20.2712 251.564 18.8114C254.493 17.3516 258.288 16.6217 262.948 16.6217C267.875 16.6217 271.803 17.3516 274.733 18.8114C277.662 20.2049 279.892 22.1623 281.424 24.6838C283.022 27.2052 284.054 30.1912 284.52 33.6416C284.986 37.0256 285.219 40.7415 285.219 44.7891C285.219 48.8367 284.919 52.5857 284.32 56.0361C283.787 59.4865 282.689 62.5057 281.024 65.0935C279.426 67.6149 277.163 69.6056 274.233 71.0653C271.371 72.5251 267.609 73.255 262.948 73.255ZM269.04 44.9882C269.04 41.6704 268.94 38.8836 268.741 36.6275C268.608 34.3051 268.308 32.4472 267.842 31.0538C267.442 29.6603 266.843 28.665 266.044 28.0678C265.312 27.4706 264.313 27.172 263.048 27.172C260.652 27.172 259.02 28.4991 258.155 31.1533C257.289 33.8075 256.857 38.3859 256.857 44.8886C256.857 51.4577 257.289 56.0693 258.155 58.7235C259.02 61.3776 260.652 62.7047 263.048 62.7047C264.313 62.7047 265.312 62.4061 266.044 61.8089C266.843 61.2118 267.442 60.2164 267.842 58.823C268.308 57.4296 268.608 55.6048 268.741 53.3488C268.94 51.0927 269.04 48.3059 269.04 44.9882Z" fill="black"/>
<path d="M318.974 38.3196C318.974 34.3383 318.474 31.4851 317.476 29.7599C316.543 28.0347 315.012 27.172 312.882 27.172C311.55 27.172 310.485 27.6033 309.686 28.466C308.887 29.2622 308.255 30.4234 307.789 31.9496C307.389 33.4757 307.123 35.3336 306.99 37.5233C306.856 39.713 306.79 42.2013 306.79 44.9882C306.79 48.0404 306.856 50.6946 306.99 52.9507C307.123 55.1403 307.389 56.9651 307.789 58.4249C308.255 59.8847 308.887 60.9795 309.686 61.7094C310.485 62.3729 311.55 62.7047 312.882 62.7047C314.08 62.7047 315.045 62.5057 315.778 62.1075C316.577 61.6431 317.176 60.9132 317.575 59.9178C318.041 58.9225 318.374 57.6286 318.574 56.0361C318.774 54.3773 318.907 52.3535 318.974 49.9647H333.954C333.887 58.259 332.123 64.2309 328.661 67.8803C325.265 71.4635 319.906 73.255 312.582 73.255C307.456 73.255 303.428 72.4256 300.498 70.7668C297.635 69.1079 295.438 66.885 293.907 64.0982C292.442 61.3113 291.51 58.0931 291.111 54.4436C290.778 50.7941 290.611 46.9788 290.611 42.9975C290.611 39.2153 290.911 35.7317 291.51 32.5467C292.176 29.2954 293.341 26.5085 295.006 24.1861C296.67 21.7974 298.9 19.9394 301.697 18.6124C304.56 17.2853 308.188 16.6217 312.582 16.6217C316.843 16.6217 320.338 17.1526 323.068 18.2142C325.864 19.2759 328.061 20.7689 329.659 22.6931C331.257 24.5511 332.356 26.8403 332.955 29.5608C333.621 32.215 333.954 35.1346 333.954 38.3196H318.974Z" fill="black"/>
<path d="M354.271 55.2399C354.271 57.3632 354.67 59.0552 355.469 60.316C356.268 61.5103 357.433 62.1075 358.965 62.1075C360.696 62.1075 362.194 61.5767 363.459 60.515C364.79 59.4534 365.456 57.5291 365.456 54.7422C365.456 52.4862 365.456 50.6283 365.456 49.1685C365.523 47.7087 365.556 46.4148 365.556 45.2867C363.026 46.6138 361.095 47.4764 359.764 47.8746C358.499 48.2063 357.5 48.6708 356.768 49.268C355.902 49.9315 355.27 50.7278 354.87 51.6567C354.471 52.5194 354.271 53.7137 354.271 55.2399ZM340.19 34.5374C340.256 30.7552 340.789 27.7361 341.788 25.48C342.853 23.224 344.351 21.4324 346.282 20.1053C348.212 18.7782 350.343 17.8825 352.673 17.418C355.07 16.8871 357.966 16.6217 361.361 16.6217C368.019 16.6217 372.879 17.8493 375.942 20.3044C379.004 22.6931 380.536 26.7739 380.536 32.5467V60.2164C380.536 62.2734 380.602 64.4299 380.736 66.686C380.935 68.942 381.501 70.6672 382.433 71.8616H366.854C366.521 70.9326 366.288 69.9373 366.155 68.8757C366.088 67.814 366.022 66.7523 365.955 65.6907H365.756C364.624 68.0794 362.926 69.9373 360.662 71.2644C358.399 72.5915 355.869 73.255 353.073 73.255C348.479 73.255 344.917 71.9943 342.387 69.4728C339.923 66.885 338.692 62.6715 338.692 56.8324C338.692 53.6474 339.291 50.8605 340.489 48.4717C341.688 46.0166 343.286 44.2251 345.283 43.0971C347.28 41.969 349.61 41.1064 352.274 40.5092C355.003 39.9121 357.5 39.3149 359.764 38.7177C360.962 38.3859 361.927 38.0873 362.66 37.8219C363.459 37.4901 364.058 37.1252 364.457 36.7271C364.923 36.2626 365.223 35.6986 365.356 35.035C365.489 34.3715 365.556 33.542 365.556 32.5467C365.556 30.8879 365.156 29.594 364.357 28.665C363.559 27.6697 362.26 27.172 360.463 27.172C358.199 27.172 356.668 27.8356 355.869 29.1627C355.07 30.4234 354.637 32.215 354.57 34.5374H340.19Z" fill="black"/>
<path d="M416.488 38.22C416.488 34.4378 416.122 31.5514 415.389 29.5608C414.723 27.5702 413.259 26.5749 410.995 26.5749C408.332 26.5749 406.634 27.6033 405.902 29.6603C405.17 31.7173 404.803 34.5705 404.803 38.22H416.488ZM404.803 47.576V50.8605C404.803 55.0408 405.203 58.1595 406.002 60.2164C406.801 62.2734 408.365 63.3019 410.695 63.3019C412.826 63.3019 414.291 62.5057 415.09 60.9132C415.889 59.3207 416.388 56.8324 416.588 53.4483H431.568C431.434 60.2164 429.604 65.2262 426.075 68.4775C422.546 71.6625 417.387 73.255 410.596 73.255C405.469 73.255 401.441 72.4256 398.512 70.7668C395.649 69.1079 393.452 66.885 391.921 64.0982C390.456 61.3113 389.524 58.0931 389.124 54.4436C388.791 50.7941 388.625 46.9788 388.625 42.9975C388.625 39.2153 388.925 35.7317 389.524 32.5467C390.19 29.2954 391.355 26.5085 393.019 24.1861C394.684 21.7974 396.914 19.9394 399.71 18.6124C402.573 17.2853 406.202 16.6217 410.596 16.6217C415.589 16.6217 419.517 17.3848 422.38 18.911C425.243 20.3707 427.373 22.4941 428.771 25.281C430.236 28.0015 431.135 31.2528 431.468 35.035C431.867 38.8172 432.067 42.9975 432.067 47.576H404.803Z" fill="black"/>
<path d="M438.902 0.796252H455.081V71.8616H438.902V0.796252Z" fill="black"/>
<path d="M464.844 0H481.023V12.3419H464.844V0ZM464.844 18.0152H481.023V71.8616H464.844V18.0152Z" fill="black"/>
<path d="M203.741 155.285H208.823C212.211 155.285 214.569 154.394 215.898 152.611C217.227 150.762 217.891 148.583 217.891 146.073C217.891 142.508 217.061 139.965 215.4 138.447C213.805 136.928 211.713 136.168 209.122 136.168H203.741V155.285ZM203.741 125.075H208.325C211.314 125.075 213.407 124.315 214.603 122.797C215.865 121.278 216.496 119.264 216.496 116.755C216.496 115.896 216.363 115.005 216.097 114.08C215.832 113.156 215.367 112.33 214.702 111.604C214.104 110.878 213.274 110.283 212.211 109.821C211.215 109.359 209.952 109.128 208.424 109.128H203.741V125.075ZM187 96.8456H213.008C219.12 96.8456 224.003 98.2984 227.656 101.204C231.377 104.043 233.237 108.401 233.237 114.278C233.237 118.438 232.207 121.971 230.148 124.877C228.155 127.782 225.464 129.565 222.076 130.225V130.424C223.405 130.622 224.833 130.985 226.361 131.513C227.889 131.975 229.317 132.834 230.646 134.088C231.975 135.343 233.071 137.06 233.934 139.239C234.798 141.418 235.23 144.324 235.23 147.955C235.23 150.068 234.931 152.281 234.333 154.592C233.735 156.837 232.572 158.95 230.845 160.931C229.184 162.846 226.826 164.431 223.77 165.685C220.714 166.94 216.695 167.567 211.713 167.567H187V96.8456Z" fill="black"/>
<path d="M269.531 134.088C269.531 130.324 269.165 127.452 268.434 125.471C267.77 123.49 266.309 122.5 264.05 122.5C261.393 122.5 259.699 123.523 258.968 125.57C258.237 127.617 257.872 130.457 257.872 134.088H269.531ZM257.872 143.399V146.668C257.872 150.828 258.27 153.931 259.067 155.978C259.865 158.025 261.426 159.049 263.751 159.049C265.877 159.049 267.338 158.257 268.135 156.672C268.933 155.087 269.431 152.611 269.63 149.243H284.577C284.445 155.978 282.618 160.964 279.097 164.2C275.576 167.369 270.427 168.954 263.651 168.954C258.536 168.954 254.517 168.129 251.594 166.478C248.737 164.827 246.545 162.615 245.017 159.841C243.556 157.068 242.626 153.865 242.227 150.233C241.895 146.602 241.729 142.805 241.729 138.843C241.729 135.079 242.028 131.612 242.626 128.443C243.29 125.207 244.452 122.434 246.113 120.122C247.774 117.745 249.999 115.896 252.79 114.576C255.646 113.255 259.267 112.595 263.651 112.595C268.634 112.595 272.553 113.354 275.41 114.873C278.266 116.325 280.392 118.438 281.787 121.212C283.249 123.919 284.146 127.155 284.478 130.919C284.876 134.683 285.076 138.843 285.076 143.399H257.872Z" fill="black"/>
<path d="M293.59 125.075H286.914V113.981H293.59V98.2323H309.733V113.981H317.207V125.075H309.733V152.115C309.733 154.03 310.099 155.351 310.829 156.077C311.626 156.738 312.988 157.068 314.915 157.068C315.247 157.068 315.612 157.068 316.011 157.068C316.476 157.002 316.875 156.936 317.207 156.87V167.567C314.084 167.963 310.995 168.162 307.94 168.162C305.149 168.162 302.824 167.996 300.964 167.666C299.104 167.336 297.609 166.676 296.48 165.685C295.417 164.629 294.653 163.143 294.188 161.228C293.789 159.313 293.59 156.804 293.59 153.7V125.075Z" fill="black"/>
<path d="M343.357 168.954C338.441 168.954 334.489 168.261 331.499 166.874C328.576 165.421 326.351 163.44 324.823 160.931C323.295 158.422 322.298 155.483 321.833 152.115C321.368 148.682 321.136 144.951 321.136 140.923C321.136 136.895 321.402 133.164 321.933 129.73C322.531 126.296 323.627 123.325 325.221 120.816C326.882 118.24 329.141 116.226 331.998 114.774C334.921 113.321 338.707 112.595 343.357 112.595C348.273 112.595 352.193 113.321 355.116 114.774C358.039 116.16 360.264 118.108 361.792 120.618C363.387 123.127 364.416 126.098 364.882 129.532C365.347 132.9 365.579 136.598 365.579 140.626C365.579 144.654 365.28 148.385 364.682 151.818C364.151 155.252 363.055 158.257 361.394 160.832C359.799 163.341 357.541 165.322 354.618 166.775C351.761 168.228 348.008 168.954 343.357 168.954ZM349.436 140.824C349.436 137.522 349.336 134.749 349.137 132.504C349.004 130.192 348.705 128.344 348.24 126.957C347.842 125.57 347.244 124.58 346.447 123.985C345.716 123.391 344.719 123.094 343.457 123.094C341.066 123.094 339.438 124.415 338.574 127.056C337.711 129.697 337.279 134.253 337.279 140.725C337.279 147.262 337.711 151.851 338.574 154.493C339.438 157.134 341.066 158.455 343.457 158.455C344.719 158.455 345.716 158.158 346.447 157.563C347.244 156.969 347.842 155.978 348.24 154.592C348.705 153.205 349.004 151.389 349.137 149.144C349.336 146.899 349.436 144.125 349.436 140.824Z" fill="black"/>
<path d="M388.598 140.428C388.598 142.805 388.631 145.017 388.697 147.064C388.83 149.111 389.096 150.894 389.495 152.413C389.893 153.931 390.458 155.12 391.189 155.978C391.986 156.837 393.082 157.266 394.477 157.266C395.939 157.266 397.068 156.903 397.865 156.176C398.729 155.384 399.36 154.295 399.758 152.908C400.157 151.455 400.389 149.738 400.456 147.757C400.589 145.776 400.655 143.564 400.655 141.121C400.655 138.942 400.589 136.862 400.456 134.881C400.389 132.834 400.157 131.051 399.758 129.532C399.36 127.947 398.729 126.693 397.865 125.768C397.001 124.778 395.839 124.282 394.377 124.282C391.986 124.282 390.425 125.669 389.694 128.443C388.963 131.216 388.598 135.211 388.598 140.428ZM372.754 113.981H388.299V120.519H388.498C388.764 119.66 389.162 118.769 389.694 117.844C390.292 116.854 391.056 115.995 391.986 115.269C392.982 114.477 394.145 113.849 395.473 113.387C396.802 112.859 398.363 112.595 400.157 112.595C402.814 112.595 405.173 113.123 407.232 114.179C409.358 115.17 411.118 116.788 412.513 119.033C413.908 121.212 414.971 124.051 415.702 127.551C416.433 131.051 416.798 135.31 416.798 140.329C416.798 144.489 416.599 148.319 416.2 151.818C415.802 155.318 415.038 158.356 413.908 160.931C412.779 163.44 411.185 165.421 409.125 166.874C407.066 168.261 404.409 168.954 401.153 168.954C398.961 168.954 396.736 168.492 394.477 167.567C392.218 166.577 390.425 164.629 389.096 161.723H388.897V185H372.754V113.981Z" fill="black"/>
<path d="M438.178 151.026C438.178 153.139 438.577 154.823 439.374 156.077C440.171 157.266 441.334 157.86 442.862 157.86C444.589 157.86 446.084 157.332 447.346 156.276C448.674 155.219 449.339 153.304 449.339 150.531C449.339 148.286 449.339 146.437 449.339 144.984C449.405 143.531 449.438 142.243 449.438 141.121C446.914 142.442 444.987 143.3 443.659 143.696C442.397 144.026 441.4 144.489 440.669 145.083C439.806 145.743 439.175 146.536 438.776 147.46C438.378 148.319 438.178 149.507 438.178 151.026ZM424.128 130.424C424.194 126.66 424.726 123.655 425.722 121.41C426.785 119.165 428.28 117.382 430.206 116.061C432.133 114.741 434.259 113.849 436.584 113.387C438.975 112.859 441.865 112.595 445.253 112.595C451.896 112.595 456.746 113.816 459.802 116.259C462.858 118.637 464.386 122.698 464.386 128.443V155.978C464.386 158.025 464.452 160.171 464.585 162.417C464.784 164.662 465.349 166.379 466.279 167.567H450.734C450.402 166.643 450.169 165.652 450.036 164.596C449.97 163.539 449.904 162.483 449.837 161.426H449.638C448.508 163.803 446.814 165.652 444.556 166.973C442.297 168.294 439.773 168.954 436.982 168.954C432.399 168.954 428.844 167.699 426.32 165.19C423.862 162.615 422.633 158.422 422.633 152.611C422.633 149.441 423.231 146.668 424.427 144.291C425.623 141.847 427.217 140.064 429.21 138.942C431.203 137.819 433.528 136.961 436.185 136.367C438.909 135.772 441.4 135.178 443.659 134.584C444.855 134.253 445.818 133.956 446.549 133.692C447.346 133.362 447.944 132.999 448.342 132.603C448.807 132.14 449.106 131.579 449.239 130.919C449.372 130.258 449.438 129.433 449.438 128.443C449.438 126.792 449.04 125.504 448.243 124.58C447.446 123.589 446.15 123.094 444.356 123.094C442.098 123.094 440.57 123.754 439.773 125.075C438.975 126.329 438.544 128.112 438.477 130.424H424.128Z" fill="black"/>
<path d="M474.251 113.981H489.796V120.32H489.995C491.125 117.943 492.819 116.061 495.077 114.675C497.336 113.288 499.96 112.595 502.95 112.595C507.533 112.595 511.021 113.783 513.413 116.16C515.804 118.538 517 122.301 517 127.452V167.567H500.857V131.018C500.857 129.103 500.458 127.617 499.661 126.561C498.864 125.438 497.701 124.877 496.173 124.877C494.646 124.877 493.284 125.504 492.088 126.759C490.959 127.947 490.394 129.862 490.394 132.504V167.567H474.251V113.981Z" fill="black"/>
<path fill-rule="evenodd" clip-rule="evenodd" d="M135 0H0V135H135V0ZM27 108V27H54V56L81 68L54 80V108H27ZM81 68L108 56V27H81V68ZM81 68L108 80V108H81V68Z" fill="black"/>
</svg>
