<svg width="144" height="51" viewBox="0 0 144 51" fill="none" xmlns="http://www.w3.org/2000/svg">
<path d="M52.0851 0.219507H56.7582V7.95712H56.8138L61.1809 0.219507H66.2155L61.014 8.67052L66.8553 19.8105H61.5981L58.0099 12.4296L56.7582 14.3228V19.8105H52.0851V0.219507Z" fill="#1C2434"/>
<path d="M73.239 20.1946C71.8668 20.1946 70.7634 20.0026 69.929 19.6184C69.113 19.216 68.4918 18.6672 68.0653 17.9721C67.6388 17.277 67.3606 16.463 67.2308 15.5301C67.101 14.5789 67.0361 13.5454 67.0361 12.4296C67.0361 11.3137 67.1103 10.2802 67.2586 9.32904C67.4255 8.37785 67.7315 7.5547 68.1766 6.85959C68.6402 6.14619 69.2706 5.58828 70.068 5.18585C70.884 4.78342 71.941 4.58221 73.239 4.58221C74.6113 4.58221 75.7054 4.78342 76.5213 5.18585C77.3372 5.56999 77.9585 6.10961 78.385 6.80471C78.83 7.49982 79.1174 8.32297 79.2473 9.27417C79.3771 10.2071 79.442 11.2314 79.442 12.3473C79.442 13.4631 79.3585 14.4966 79.1916 15.4478C79.0433 16.399 78.7373 17.2313 78.2737 17.9447C77.8287 18.6398 77.1981 19.1886 76.3822 19.591C75.5848 19.9934 74.5371 20.1946 73.239 20.1946ZM74.9358 12.4021C74.9358 11.4875 74.908 10.7193 74.8524 10.0973C74.8153 9.45709 74.7318 8.94491 74.602 8.56077C74.4907 8.17663 74.3239 7.90225 74.1013 7.73762C73.8974 7.57299 73.6192 7.49067 73.2669 7.49067C72.5993 7.49067 72.1449 7.85652 71.9039 8.58821C71.6628 9.3199 71.5423 10.5821 71.5423 12.3747C71.5423 14.1856 71.6628 15.4569 71.9039 16.1886C72.1449 16.9203 72.5993 17.2862 73.2669 17.2862C73.6192 17.2862 73.8974 17.2039 74.1013 17.0392C74.3239 16.8746 74.4907 16.6002 74.602 16.2161C74.7318 15.8319 74.8153 15.3289 74.8524 14.707C74.908 14.085 74.9358 13.3168 74.9358 12.4021Z" fill="#1C2434"/>
<path d="M88.8437 10.5638C88.8437 9.46624 88.7046 8.67967 88.4265 8.20407C88.1669 7.72847 87.7403 7.49067 87.1469 7.49067C86.7761 7.49067 86.4794 7.60957 86.2568 7.84737C86.0343 8.06688 85.8581 8.38699 85.7283 8.80771C85.6171 9.22844 85.5429 9.74062 85.5058 10.3443C85.4687 10.9479 85.4502 11.6339 85.4502 12.4021C85.4502 13.2436 85.4687 13.9753 85.5058 14.5972C85.5429 15.2009 85.6171 15.7039 85.7283 16.1063C85.8581 16.5087 86.0343 16.8106 86.2568 17.0118C86.4794 17.1947 86.7761 17.2862 87.1469 17.2862C87.4807 17.2862 87.7496 17.2313 87.9536 17.1215C88.1761 16.9935 88.343 16.7923 88.4543 16.5179C88.5841 16.2435 88.6768 15.8868 88.7324 15.4478C88.7881 14.9905 88.8252 14.4326 88.8437 13.7741H93.0161C92.9975 16.0606 92.5061 17.7069 91.5418 18.713C90.5961 19.7007 89.1033 20.1946 87.0635 20.1946C85.6356 20.1946 84.5137 19.966 83.6978 19.5087C82.9004 19.0514 82.2884 18.4386 81.8619 17.6703C81.454 16.902 81.1944 16.0149 81.0831 15.0088C80.9904 14.0027 80.944 12.9509 80.944 11.8534C80.944 10.8107 81.0275 9.85037 81.1944 8.97234C81.3798 8.07602 81.7043 7.30775 82.1679 6.66752C82.6315 6.009 83.2527 5.49682 84.0316 5.13097C84.829 4.76513 85.8396 4.58221 87.0635 4.58221C88.2503 4.58221 89.2239 4.72854 89.9842 5.02122C90.763 5.3139 91.375 5.72547 91.82 6.25595C92.2651 6.76813 92.571 7.39921 92.7379 8.14919C92.9234 8.88088 93.0161 9.68574 93.0161 10.5638H88.8437Z" fill="#1C2434"/>
<path d="M98.6751 15.2283C98.6751 15.8136 98.7863 16.2801 99.0089 16.6276C99.2314 16.9569 99.5559 17.1215 99.9824 17.1215C100.465 17.1215 100.882 16.9752 101.234 16.6825C101.605 16.3898 101.79 15.8594 101.79 15.0911C101.79 14.4692 101.79 13.957 101.79 13.5546C101.809 13.1521 101.818 12.7954 101.818 12.4845C101.114 12.8503 100.576 13.0881 100.205 13.1979C99.8526 13.2893 99.5745 13.4174 99.3705 13.582C99.1294 13.7649 98.9532 13.9844 98.842 14.2405C98.7307 14.4783 98.6751 14.8076 98.6751 15.2283ZM94.753 9.52111C94.7716 8.47845 94.9199 7.64616 95.1981 7.02422C95.4948 6.40228 95.912 5.90839 96.4498 5.54255C96.9876 5.1767 97.581 4.92976 98.23 4.80171C98.8976 4.65538 99.7043 4.58221 100.65 4.58221C102.504 4.58221 103.858 4.92061 104.711 5.59743C105.564 6.25595 105.991 7.38092 105.991 8.97234V16.6002C105.991 17.1673 106.009 17.7618 106.046 18.3837C106.102 19.0056 106.26 19.4812 106.519 19.8105H102.18C102.087 19.5544 102.022 19.28 101.985 18.9873C101.967 18.6947 101.948 18.402 101.93 18.1093H101.874C101.559 18.7678 101.086 19.28 100.455 19.6459C99.8248 20.0117 99.1201 20.1946 98.3413 20.1946C97.0618 20.1946 96.0697 19.8471 95.365 19.152C94.6789 18.4386 94.3358 17.277 94.3358 15.6673C94.3358 14.7893 94.5027 14.021 94.8365 13.3625C95.1703 12.6857 95.6153 12.1918 96.1717 11.8808C96.728 11.5698 97.377 11.332 98.1188 11.1674C98.8791 11.0028 99.5745 10.8382 100.205 10.6735C100.539 10.5821 100.808 10.4997 101.012 10.4266C101.234 10.3351 101.401 10.2345 101.512 10.1248C101.642 9.99671 101.726 9.84123 101.763 9.6583C101.8 9.47538 101.818 9.24673 101.818 8.97234C101.818 8.51504 101.707 8.15834 101.484 7.90225C101.262 7.62786 100.9 7.49067 100.4 7.49067C99.7692 7.49067 99.3427 7.67359 99.1201 8.03944C98.8976 8.38699 98.7771 8.88088 98.7585 9.52111H94.753Z" fill="#1C2434"/>
<path d="M116.004 10.5363C116.004 9.49367 115.902 8.69796 115.698 8.14919C115.513 7.60043 115.105 7.32604 114.474 7.32604C113.733 7.32604 113.26 7.60957 113.056 8.17663C112.852 8.74369 112.75 9.53026 112.75 10.5363H116.004ZM112.75 13.1155V14.021C112.75 15.1734 112.861 16.0331 113.084 16.6002C113.306 17.1673 113.742 17.4508 114.391 17.4508C114.984 17.4508 115.392 17.2313 115.615 16.7923C115.837 16.3533 115.977 15.6673 116.032 14.7344H120.205C120.167 16.6002 119.657 17.9813 118.675 18.8776C117.692 19.7556 116.255 20.1946 114.363 20.1946C112.935 20.1946 111.813 19.966 110.997 19.5087C110.2 19.0514 109.588 18.4386 109.162 17.6703C108.754 16.902 108.494 16.0149 108.383 15.0088C108.29 14.0027 108.244 12.9509 108.244 11.8534C108.244 10.8107 108.327 9.85037 108.494 8.97234C108.68 8.07602 109.004 7.30775 109.468 6.66752C109.931 6.009 110.552 5.49682 111.331 5.13097C112.129 4.76513 113.139 4.58221 114.363 4.58221C115.754 4.58221 116.848 4.79257 117.645 5.21329C118.443 5.61572 119.036 6.20107 119.426 6.96934C119.834 7.71933 120.084 8.61565 120.177 9.6583C120.288 10.701 120.344 11.8534 120.344 13.1155H112.75Z" fill="#1C2434"/>
<path d="M122.247 0.219507H126.754V19.8105H122.247V0.219507Z" fill="#1C2434"/>
<path d="M129.473 0H133.979V3.40236H129.473V0ZM129.473 4.96634H133.979V19.8105H129.473V4.96634Z" fill="#1C2434"/>
<path d="M56.748 42.8083H58.1635C59.1071 42.8083 59.764 42.5626 60.1341 42.0711C60.5041 41.5614 60.6892 40.9606 60.6892 40.2689C60.6892 39.2859 60.4579 38.585 59.9953 38.1664C59.5512 37.7477 58.9684 37.5383 58.2467 37.5383H56.748V42.8083ZM56.748 34.4801H58.0247C58.8573 34.4801 59.4402 34.2707 59.7733 33.8521C60.1248 33.4334 60.3006 32.8782 60.3006 32.1864C60.3006 31.9498 60.2636 31.704 60.1896 31.4492C60.1156 31.1943 59.986 30.9668 59.801 30.7665C59.6345 30.5663 59.4032 30.4025 59.1071 30.275C58.8296 30.1476 58.478 30.0839 58.0524 30.0839H56.748V34.4801ZM52.0851 26.698H59.3292C61.0315 26.698 62.3915 27.0985 63.4092 27.8994C64.4454 28.6822 64.9634 29.8836 64.9634 31.5038C64.9634 32.6506 64.6766 33.6245 64.103 34.4255C63.5479 35.2264 62.7986 35.7179 61.8549 35.9V35.9546C62.2249 36.0092 62.6228 36.1093 63.0483 36.255C63.4739 36.3824 63.8717 36.619 64.2418 36.9649C64.6119 37.3108 64.9172 37.7841 65.1577 38.3848C65.3983 38.9855 65.5185 39.7865 65.5185 40.7877C65.5185 41.3702 65.4353 41.98 65.2687 42.6172C65.1022 43.2361 64.7784 43.8186 64.2973 44.3647C63.8347 44.8926 63.1779 45.3295 62.3267 45.6754C61.4756 46.0213 60.3561 46.1942 58.9684 46.1942H52.0851V26.698Z" fill="#1C2434"/>
<path d="M75.0723 36.9649C75.0723 35.9273 74.9706 35.1354 74.767 34.5893C74.582 34.0432 74.1749 33.7701 73.5458 33.7701C72.8057 33.7701 72.3338 34.0523 72.1303 34.6166C71.9268 35.1809 71.825 35.9637 71.825 36.9649H75.0723ZM71.825 39.5316V40.4327C71.825 41.5796 71.936 42.4351 72.1581 42.9994C72.3801 43.5638 72.8149 43.8459 73.4626 43.8459C74.0547 43.8459 74.4617 43.6275 74.6838 43.1906C74.9058 42.7537 75.0446 42.0711 75.1001 41.1427H79.2634C79.2264 42.9995 78.7175 44.3738 77.7368 45.2658C76.7561 46.1396 75.3221 46.5765 73.4348 46.5765C72.01 46.5765 70.8906 46.3489 70.0764 45.8939C69.2808 45.4388 68.6702 44.8289 68.2446 44.0644C67.8375 43.2998 67.5785 42.4169 67.4675 41.4157C67.375 40.4145 67.3287 39.3678 67.3287 38.2756C67.3287 37.238 67.412 36.2823 67.5785 35.4085C67.7635 34.5165 68.0873 33.7519 68.5499 33.1148C69.0125 32.4595 69.6324 31.9498 70.4095 31.5857C71.2051 31.2216 72.2136 31.0396 73.4348 31.0396C74.8226 31.0396 75.9142 31.2489 76.7099 31.6676C77.5055 32.0681 78.0976 32.6506 78.4862 33.4152C78.8933 34.1615 79.1431 35.0535 79.2356 36.0911C79.3466 37.1287 79.4021 38.2756 79.4021 39.5316H71.825Z" fill="#1C2434"/>
<path d="M81.7737 34.4801H79.9141V31.4219H81.7737V27.0803H86.27V31.4219H88.3516V34.4801H86.27V41.9345C86.27 42.4624 86.3718 42.8265 86.5753 43.0268C86.7973 43.2088 87.1766 43.2998 87.7132 43.2998C87.8058 43.2998 87.9075 43.2998 88.0185 43.2998C88.1481 43.2816 88.2591 43.2634 88.3516 43.2452V46.1942C87.482 46.3034 86.6215 46.358 85.7704 46.358C84.9933 46.358 84.3456 46.3125 83.8275 46.2215C83.3095 46.1305 82.8931 45.9485 82.5786 45.6754C82.2825 45.3841 82.0697 44.9746 81.9402 44.4466C81.8292 43.9187 81.7737 43.227 81.7737 42.3714V34.4801Z" fill="#1C2434"/>
<path d="M95.6354 46.5765C94.2661 46.5765 93.1652 46.3853 92.3325 46.0031C91.5184 45.6026 90.8985 45.0565 90.4729 44.3647C90.0473 43.673 89.7698 42.8629 89.6403 41.9345C89.5107 40.9879 89.446 39.9594 89.446 38.849C89.446 37.7386 89.52 36.7101 89.668 35.7635C89.8346 34.8169 90.1399 33.9977 90.5839 33.306C91.0465 32.596 91.6756 32.0408 92.4713 31.6403C93.2854 31.2398 94.3401 31.0396 95.6354 31.0396C97.0046 31.0396 98.0963 31.2398 98.9105 31.6403C99.7246 32.0226 100.344 32.5596 100.77 33.2513C101.214 33.9431 101.501 34.7623 101.63 35.7088C101.76 36.6372 101.825 37.6566 101.825 38.7671C101.825 39.8775 101.741 40.906 101.575 41.8526C101.427 42.7992 101.122 43.6275 100.659 44.3374C100.215 45.0292 99.5858 45.5753 98.7717 45.9758C97.976 46.3763 96.9306 46.5765 95.6354 46.5765ZM97.3284 38.8217C97.3284 37.9115 97.3007 37.1469 97.2451 36.528C97.2081 35.8909 97.1249 35.3812 96.9954 34.9989C96.8843 34.6166 96.7178 34.3436 96.4958 34.1797C96.2922 34.0159 96.0147 33.934 95.6631 33.934C94.997 33.934 94.5437 34.2981 94.3031 35.0262C94.0626 35.7544 93.9423 37.0104 93.9423 38.7944C93.9423 40.5966 94.0626 41.8617 94.3031 42.5899C94.5437 43.318 94.997 43.6821 95.6631 43.6821C96.0147 43.6821 96.2922 43.6002 96.4958 43.4363C96.7178 43.2725 96.8843 42.9995 96.9954 42.6172C97.1249 42.2349 97.2081 41.7343 97.2451 41.1154C97.3007 40.4964 97.3284 39.7319 97.3284 38.8217Z" fill="#1C2434"/>
<path d="M108.236 38.7125C108.236 39.3678 108.245 39.9776 108.264 40.5419C108.301 41.1063 108.375 41.5978 108.486 42.0165C108.597 42.4351 108.754 42.7628 108.958 42.9994C109.18 43.2361 109.485 43.3544 109.874 43.3544C110.281 43.3544 110.595 43.2543 110.817 43.0541C111.058 42.8356 111.234 42.5353 111.345 42.153C111.456 41.7525 111.52 41.2792 111.539 40.7331C111.576 40.187 111.594 39.5771 111.594 38.9036C111.594 38.3029 111.576 37.7295 111.539 37.1834C111.52 36.619 111.456 36.1275 111.345 35.7088C111.234 35.272 111.058 34.9261 110.817 34.6712C110.577 34.3982 110.253 34.2616 109.846 34.2616C109.18 34.2616 108.745 34.6439 108.541 35.4085C108.338 36.173 108.236 37.2744 108.236 38.7125ZM103.823 31.4219H108.153V33.224H108.208C108.282 32.9874 108.393 32.7416 108.541 32.4868C108.708 32.2137 108.921 31.9771 109.18 31.7768C109.457 31.5584 109.781 31.3855 110.151 31.258C110.521 31.1124 110.956 31.0396 111.456 31.0396C112.196 31.0396 112.853 31.1852 113.426 31.4765C114.018 31.7495 114.509 32.1955 114.897 32.8145C115.286 33.4152 115.582 34.1979 115.785 35.1627C115.989 36.1275 116.091 37.3017 116.091 38.6852C116.091 39.832 116.035 40.8878 115.924 41.8526C115.813 42.8174 115.6 43.6548 115.286 44.3647C114.971 45.0565 114.527 45.6026 113.954 46.0031C113.38 46.3853 112.64 46.5765 111.733 46.5765C111.123 46.5765 110.503 46.4491 109.874 46.1942C109.245 45.9211 108.745 45.3841 108.375 44.5832H108.319V51H103.823V31.4219Z" fill="#1C2434"/>
<path d="M122.046 41.6342C122.046 42.2167 122.157 42.6809 122.379 43.0268C122.601 43.3544 122.925 43.5183 123.35 43.5183C123.831 43.5183 124.248 43.3726 124.599 43.0814C124.969 42.7901 125.154 42.2622 125.154 41.4976C125.154 40.8787 125.154 40.369 125.154 39.9685C125.173 39.568 125.182 39.2131 125.182 38.9036C124.479 39.2677 123.942 39.5043 123.572 39.6136C123.221 39.7046 122.943 39.832 122.74 39.9958C122.499 40.1779 122.323 40.3963 122.212 40.6512C122.101 40.8878 122.046 41.2155 122.046 41.6342ZM118.132 35.9546C118.151 34.917 118.299 34.0887 118.576 33.4698C118.872 32.8509 119.289 32.3594 119.825 31.9953C120.362 31.6312 120.954 31.3855 121.602 31.258C122.268 31.1124 123.073 31.0396 124.016 31.0396C125.867 31.0396 127.217 31.3764 128.069 32.0499C128.92 32.7052 129.345 33.8248 129.345 35.4085V42.9994C129.345 43.5638 129.364 44.1554 129.401 44.7743C129.456 45.3932 129.614 45.8665 129.873 46.1942H125.543C125.45 45.9394 125.386 45.6663 125.349 45.375C125.33 45.0838 125.312 44.7925 125.293 44.5013H125.238C124.923 45.1566 124.451 45.6663 123.822 46.0304C123.193 46.3945 122.49 46.5765 121.713 46.5765C120.436 46.5765 119.446 46.2306 118.743 45.5389C118.058 44.8289 117.716 43.673 117.716 42.0711C117.716 41.1973 117.883 40.4327 118.216 39.7774C118.549 39.1039 118.993 38.6123 119.548 38.3029C120.103 37.9934 120.751 37.7568 121.491 37.5929C122.249 37.4291 122.943 37.2653 123.572 37.1014C123.905 37.0104 124.174 36.9285 124.377 36.8557C124.599 36.7647 124.766 36.6645 124.877 36.5553C125.006 36.4279 125.09 36.2732 125.127 36.0911C125.164 35.9091 125.182 35.6815 125.182 35.4085C125.182 34.9534 125.071 34.5984 124.849 34.3436C124.627 34.0705 124.266 33.934 123.767 33.934C123.137 33.934 122.712 34.116 122.49 34.4801C122.268 34.826 122.148 35.3175 122.129 35.9546H118.132Z" fill="#1C2434"/>
<path d="M132.093 31.4219H136.423V33.1694H136.478C136.793 32.5141 137.265 31.9953 137.894 31.613C138.523 31.2307 139.254 31.0396 140.087 31.0396C141.363 31.0396 142.335 31.3673 143.001 32.0226C143.667 32.6779 144 33.7155 144 35.1354V46.1942H139.504V36.1184C139.504 35.5905 139.393 35.1809 139.171 34.8897C138.949 34.5802 138.625 34.4255 138.199 34.4255C137.774 34.4255 137.394 34.5984 137.061 34.9443C136.747 35.272 136.589 35.7999 136.589 36.528V46.1942H132.093V31.4219Z" fill="#1C2434"/>
<path d="M0 0H37.6016V37.2162H0V0Z" fill="#3C50E0"/>
<path d="M22.5609 29.773H30.0812V22.0541L22.5609 18.7459C22.5609 23.0523 22.5609 25.4667 22.5609 29.773Z" fill="white"/>
<path d="M30.0812 15.4378V7.44324H22.5609V18.7459L30.0812 15.4378Z" fill="white"/>
<path d="M7.52031 7.44324V29.773H15.0406V22.0541L22.5609 18.7459L15.0406 15.4378V7.44324H7.52031Z" fill="white"/>
</svg>
