<svg width="560" height="89" viewBox="0 0 560 89" fill="none" xmlns="http://www.w3.org/2000/svg">
<path fill-rule="evenodd" clip-rule="evenodd" d="M75.8311 0.0600586H0V75.8912H75.8311V0.0600586ZM60.6649 60.7249H45.4987V38.2565L60.6649 44.997V60.7249ZM45.4987 38.2565L30.3324 31.5159V15.2263H15.1662V60.7249H30.3324V44.997L45.4987 38.2565ZM60.6649 31.5159L45.4987 38.2565V15.2263H60.6649V31.5159Z" fill="black"/>
<path d="M100.81 26.4242H112.449V45.9606H112.587L123.464 26.4242H136.003L123.048 47.7618L137.597 75.8886H124.503L115.566 57.2528L112.449 62.033V75.8886H100.81V26.4242Z" fill="black"/>
<path d="M153.496 76.8585C150.078 76.8585 147.33 76.3735 145.252 75.4036C143.22 74.3876 141.672 73.002 140.61 71.247C139.548 69.4919 138.855 67.4367 138.532 65.0812C138.208 62.6796 138.047 60.0701 138.047 57.2528C138.047 54.4355 138.232 51.8261 138.601 49.4244C139.017 47.0228 139.779 44.9445 140.887 43.1894C142.042 41.3882 143.612 39.9796 145.598 38.9635C147.63 37.9474 150.263 37.4394 153.496 37.4394C156.913 37.4394 159.638 37.9474 161.671 38.9635C163.703 39.9334 165.25 41.2959 166.312 43.0509C167.421 44.8059 168.136 46.8843 168.46 49.2859C168.783 51.6413 168.945 54.2277 168.945 57.045C168.945 59.8623 168.737 62.4718 168.321 64.8734C167.952 67.275 167.19 69.3765 166.035 71.1777C164.927 72.9327 163.356 74.3183 161.324 75.3344C159.338 76.3504 156.729 76.8585 153.496 76.8585ZM157.722 57.1836C157.722 54.8743 157.652 52.9345 157.514 51.3642C157.422 49.7477 157.214 48.4546 156.89 47.4847C156.613 46.5148 156.198 45.822 155.643 45.4063C155.135 44.9907 154.443 44.7828 153.565 44.7828C151.902 44.7828 150.771 45.7065 150.17 47.554C149.57 49.4014 149.27 52.5881 149.27 57.1143C149.27 61.6866 149.57 64.8965 150.17 66.7439C150.771 68.5913 151.902 69.515 153.565 69.515C154.443 69.515 155.135 69.3072 155.643 68.8915C156.198 68.4759 156.613 67.7831 156.89 66.8132C157.214 65.8433 157.422 64.5732 157.514 63.0029C157.652 61.4326 157.722 59.4928 157.722 57.1836Z" fill="black"/>
<path d="M192.361 52.542C192.361 49.7708 192.014 47.7849 191.321 46.5841C190.675 45.3832 189.613 44.7828 188.135 44.7828C187.211 44.7828 186.472 45.083 185.918 45.6834C185.364 46.2377 184.925 47.0459 184.602 48.1082C184.324 49.1704 184.14 50.4636 184.047 51.9877C183.955 53.5118 183.909 55.2438 183.909 57.1836C183.909 59.3081 183.955 61.1555 184.047 62.7258C184.14 64.2499 184.324 65.52 184.602 66.5361C184.925 67.5521 185.364 68.3142 185.918 68.8222C186.472 69.2841 187.211 69.515 188.135 69.515C188.966 69.515 189.636 69.3765 190.144 69.0993C190.698 68.7761 191.114 68.268 191.391 67.5752C191.714 66.8825 191.945 65.9818 192.083 64.8734C192.222 63.7188 192.314 62.3101 192.361 60.6475H202.752C202.706 66.4206 201.482 70.5773 199.081 73.1175C196.725 75.6115 193.007 76.8585 187.927 76.8585C184.371 76.8585 181.576 76.2812 179.544 75.1265C177.558 73.9719 176.034 72.4247 174.972 70.4849C173.956 68.5451 173.309 66.3051 173.032 63.765C172.801 61.2248 172.686 58.5691 172.686 55.798C172.686 53.1655 172.894 50.7407 173.309 48.5238C173.771 46.2608 174.579 44.321 175.734 42.7045C176.889 41.0418 178.436 39.7486 180.376 38.8249C182.362 37.9012 184.879 37.4394 187.927 37.4394C190.883 37.4394 193.307 37.8089 195.201 38.5478C197.141 39.2868 198.665 40.326 199.773 41.6653C200.882 42.9585 201.644 44.5519 202.06 46.4455C202.521 48.2929 202.752 50.3251 202.752 52.542H192.361Z" fill="black"/>
<path d="M216.847 64.3192C216.847 65.7971 217.124 66.9748 217.678 67.8523C218.232 68.6837 219.04 69.0993 220.103 69.0993C221.303 69.0993 222.343 68.7299 223.22 67.9909C224.144 67.2519 224.606 65.9126 224.606 63.9728C224.606 62.4025 224.606 61.1093 224.606 60.0932C224.652 59.0772 224.675 58.1765 224.675 57.3914C222.92 58.3151 221.581 58.9155 220.657 59.1926C219.779 59.4235 219.087 59.7468 218.578 60.1625C217.978 60.6244 217.539 61.1786 217.262 61.8252C216.985 62.4256 216.847 63.2569 216.847 64.3192ZM207.078 49.9094C207.125 47.2768 207.494 45.1754 208.187 43.6051C208.926 42.0348 209.965 40.7878 211.304 39.8641C212.644 38.9404 214.122 38.3169 215.738 37.9936C217.401 37.6241 219.41 37.4394 221.765 37.4394C226.384 37.4394 229.755 38.2938 231.88 40.0027C234.004 41.6653 235.067 44.5057 235.067 48.5238V67.7831C235.067 69.2148 235.113 70.7158 235.205 72.2861C235.344 73.8564 235.736 75.0572 236.383 75.8886H225.576C225.345 75.242 225.183 74.5492 225.091 73.8102C225.044 73.0713 224.998 72.3323 224.952 71.5934H224.813C224.028 73.256 222.851 74.5492 221.28 75.4729C219.71 76.3966 217.955 76.8585 216.015 76.8585C212.828 76.8585 210.358 75.9809 208.602 74.2259C206.894 72.4247 206.039 69.4919 206.039 65.4276C206.039 63.2107 206.455 61.271 207.286 59.6083C208.118 57.8994 209.226 56.6524 210.612 55.8673C211.997 55.0821 213.614 54.4817 215.461 54.0661C217.355 53.6504 219.087 53.2347 220.657 52.8191C221.488 52.5881 222.158 52.3803 222.666 52.1956C223.22 51.9646 223.636 51.7106 223.913 51.4335C224.236 51.1102 224.444 50.7176 224.536 50.2558C224.629 49.7939 224.675 49.2166 224.675 48.5238C224.675 47.3692 224.398 46.4686 223.844 45.822C223.289 45.1292 222.389 44.7828 221.142 44.7828C219.571 44.7828 218.509 45.2447 217.955 46.1684C217.401 47.0459 217.101 48.2929 217.054 49.9094H207.078Z" fill="black"/>
<path d="M260.007 52.4727C260.007 49.8401 259.753 47.8311 259.245 46.4455C258.783 45.06 257.767 44.3672 256.196 44.3672C254.349 44.3672 253.171 45.083 252.663 46.5148C252.155 47.9465 251.901 49.9325 251.901 52.4727H260.007ZM251.901 58.9848V61.271C251.901 64.1806 252.178 66.3513 252.732 67.7831C253.287 69.2148 254.372 69.9307 255.988 69.9307C257.466 69.9307 258.482 69.3765 259.037 68.268C259.591 67.1596 259.937 65.4276 260.076 63.0722H270.468C270.375 67.7831 269.105 71.2701 266.657 73.5331C264.209 75.75 260.63 76.8585 255.919 76.8585C252.363 76.8585 249.569 76.2812 247.537 75.1265C245.551 73.9719 244.027 72.4247 242.964 70.4849C241.948 68.5451 241.302 66.3051 241.024 63.765C240.794 61.2248 240.678 58.5691 240.678 55.798C240.678 53.1655 240.886 50.7407 241.302 48.5238C241.763 46.2608 242.572 44.321 243.726 42.7045C244.881 41.0418 246.428 39.7486 248.368 38.8249C250.354 37.9012 252.871 37.4394 255.919 37.4394C259.383 37.4394 262.108 37.9705 264.094 39.0328C266.08 40.0489 267.558 41.5268 268.528 43.4666C269.544 45.3602 270.167 47.6232 270.398 50.2558C270.675 52.8883 270.814 55.798 270.814 58.9848H251.901Z" fill="black"/>
<path d="M275.556 26.4242H286.779V75.8886H275.556V26.4242Z" fill="black"/>
<path d="M293.552 25.87H304.775V34.4604H293.552V25.87ZM293.552 38.4093H304.775V75.8886H293.552V38.4093Z" fill="black"/>
<path d="M341.39 67.2981H344.923C347.279 67.2981 348.918 66.6746 349.842 65.4276C350.766 64.1344 351.228 62.6103 351.228 60.8553C351.228 58.3613 350.65 56.5832 349.496 55.5209C348.387 54.4586 346.932 53.9275 345.131 53.9275H341.39V67.2981ZM341.39 46.1684H344.577C346.655 46.1684 348.11 45.6373 348.941 44.575C349.819 43.5127 350.258 42.1041 350.258 40.3491C350.258 39.7487 350.165 39.1251 349.981 38.4786C349.796 37.832 349.473 37.2547 349.011 36.7466C348.595 36.2386 348.018 35.8229 347.279 35.4996C346.586 35.1763 345.708 35.0147 344.646 35.0147H341.39V46.1684ZM329.751 26.4242H347.833C352.082 26.4242 355.477 27.4403 358.017 29.4724C360.603 31.4584 361.896 34.5066 361.896 38.6171C361.896 41.5268 361.18 43.9977 359.749 46.0298C358.363 48.062 356.493 49.309 354.137 49.7708V49.9094C355.061 50.048 356.054 50.302 357.116 50.6715C358.178 50.9947 359.171 51.5952 360.095 52.4727C361.019 53.3502 361.781 54.551 362.381 56.0751C362.982 57.5992 363.282 59.6314 363.282 62.1716C363.282 63.6495 363.074 65.1967 362.658 66.8132C362.243 68.3835 361.435 69.8614 360.234 71.247C359.079 72.5863 357.44 73.6948 355.315 74.5723C353.19 75.4498 350.396 75.8886 346.932 75.8886H329.751V26.4242Z" fill="black"/>
<path d="M387.129 52.4727C387.129 49.8401 386.875 47.8311 386.367 46.4455C385.905 45.06 384.889 44.3672 383.318 44.3672C381.471 44.3672 380.293 45.083 379.785 46.5148C379.277 47.9465 379.023 49.9325 379.023 52.4727H387.129ZM379.023 58.9848V61.271C379.023 64.1806 379.3 66.3513 379.854 67.7831C380.409 69.2148 381.494 69.9307 383.111 69.9307C384.588 69.9307 385.605 69.3765 386.159 68.268C386.713 67.1596 387.059 65.4276 387.198 63.0722H397.59C397.497 67.7831 396.227 71.2701 393.779 73.5331C391.332 75.75 387.752 76.8585 383.041 76.8585C379.485 76.8585 376.691 76.2812 374.659 75.1265C372.673 73.9719 371.149 72.4247 370.086 70.4849C369.07 68.5451 368.424 66.3051 368.147 63.765C367.916 61.2248 367.8 58.5691 367.8 55.798C367.8 53.1655 368.008 50.7407 368.424 48.5238C368.885 46.2608 369.694 44.321 370.848 42.7045C372.003 41.0418 373.55 39.7486 375.49 38.8249C377.476 37.9012 379.993 37.4394 383.041 37.4394C386.505 37.4394 389.23 37.9705 391.216 39.0328C393.202 40.0489 394.68 41.5268 395.65 43.4666C396.666 45.3602 397.289 47.6232 397.52 50.2558C397.797 52.8883 397.936 55.798 397.936 58.9848H379.023Z" fill="black"/>
<path d="M403.855 46.1684H399.214V38.4093H403.855V27.3941H415.078V38.4093H420.274V46.1684H415.078V65.0812C415.078 66.4206 415.332 67.3443 415.841 67.8523C416.395 68.3142 417.342 68.5451 418.681 68.5451C418.912 68.5451 419.166 68.5451 419.443 68.5451C419.766 68.4989 420.043 68.4528 420.274 68.4066V75.8886C418.104 76.1657 415.956 76.3042 413.831 76.3042C411.892 76.3042 410.275 76.1888 408.982 75.9579C407.689 75.7269 406.65 75.2651 405.865 74.5723C405.126 73.8333 404.594 72.7942 404.271 71.4548C403.994 70.1154 403.855 68.3604 403.855 66.1897V46.1684Z" fill="black"/>
<path d="M438.455 76.8585C435.037 76.8585 432.289 76.3735 430.211 75.4036C428.179 74.3876 426.631 73.002 425.569 71.247C424.507 69.4919 423.814 67.4367 423.491 65.0812C423.168 62.6796 423.006 60.0701 423.006 57.2528C423.006 54.4355 423.191 51.8261 423.56 49.4244C423.976 47.0228 424.738 44.9445 425.846 43.1894C427.001 41.3882 428.571 39.9796 430.557 38.9635C432.589 37.9474 435.222 37.4394 438.455 37.4394C441.873 37.4394 444.597 37.9474 446.63 38.9635C448.662 39.9334 450.209 41.2959 451.271 43.0509C452.38 44.8059 453.096 46.8843 453.419 49.2859C453.742 51.6413 453.904 54.2277 453.904 57.045C453.904 59.8623 453.696 62.4718 453.28 64.8734C452.911 67.275 452.149 69.3765 450.994 71.1777C449.886 72.9327 448.315 74.3183 446.283 75.3344C444.297 76.3504 441.688 76.8585 438.455 76.8585ZM442.681 57.1836C442.681 54.8743 442.612 52.9345 442.473 51.3642C442.381 49.7477 442.173 48.4546 441.849 47.4847C441.572 46.5148 441.157 45.822 440.602 45.4063C440.094 44.9907 439.402 44.7828 438.524 44.7828C436.861 44.7828 435.73 45.7065 435.13 47.554C434.529 49.4014 434.229 52.5881 434.229 57.1143C434.229 61.6866 434.529 64.8965 435.13 66.7439C435.73 68.5913 436.861 69.515 438.524 69.515C439.402 69.515 440.094 69.3072 440.602 68.8915C441.157 68.4759 441.572 67.7831 441.849 66.8132C442.173 65.8433 442.381 64.5732 442.473 63.0029C442.612 61.4326 442.681 59.4928 442.681 57.1836Z" fill="black"/>
<path d="M469.907 56.9065C469.907 58.5691 469.93 60.1163 469.976 61.5481C470.069 62.9798 470.253 64.2268 470.53 65.2891C470.808 66.3513 471.2 67.1827 471.708 67.7831C472.262 68.3835 473.024 68.6837 473.994 68.6837C475.01 68.6837 475.796 68.4297 476.35 67.9216C476.95 67.3674 477.389 66.6053 477.666 65.6355C477.943 64.6194 478.105 63.4186 478.151 62.033C478.243 60.6475 478.29 59.1003 478.29 57.3914C478.29 55.8673 478.243 54.4125 478.151 53.0269C478.105 51.5952 477.943 50.3482 477.666 49.2859C477.389 48.1775 476.95 47.2999 476.35 46.6533C475.749 45.9606 474.941 45.6142 473.925 45.6142C472.262 45.6142 471.177 46.5841 470.669 48.5238C470.161 50.4636 469.907 53.2578 469.907 56.9065ZM458.892 38.4093H469.699V42.9816H469.838C470.022 42.3812 470.3 41.7577 470.669 41.1111C471.085 40.4183 471.616 39.8179 472.262 39.3099C472.955 38.7557 473.763 38.3169 474.687 37.9936C475.611 37.6241 476.696 37.4394 477.943 37.4394C479.791 37.4394 481.43 37.8089 482.862 38.5478C484.34 39.2406 485.564 40.3722 486.534 41.9425C487.504 43.4666 488.242 45.4525 488.751 47.9003C489.259 50.3482 489.513 53.3271 489.513 56.8372C489.513 59.7468 489.374 62.4256 489.097 64.8734C488.82 67.3212 488.289 69.4457 487.504 71.247C486.718 73.002 485.61 74.3876 484.178 75.4036C482.746 76.3735 480.899 76.8585 478.636 76.8585C477.112 76.8585 475.565 76.5352 473.994 75.8886C472.424 75.1958 471.177 73.8333 470.253 71.8012H470.115V88.0815H458.892V38.4093Z" fill="black"/>
<path d="M504.376 64.3192C504.376 65.7971 504.654 66.9748 505.208 67.8523C505.762 68.6837 506.57 69.0993 507.633 69.0993C508.833 69.0993 509.872 68.7299 510.75 67.9909C511.674 67.2519 512.136 65.9126 512.136 63.9728C512.136 62.4025 512.136 61.1093 512.136 60.0932C512.182 59.0772 512.205 58.1765 512.205 57.3914C510.45 58.3151 509.11 58.9155 508.187 59.1926C507.309 59.4235 506.616 59.7468 506.108 60.1625C505.508 60.6244 505.069 61.1786 504.792 61.8252C504.515 62.4256 504.376 63.2569 504.376 64.3192ZM494.608 49.9094C494.654 47.2768 495.024 45.1754 495.717 43.6051C496.456 42.0348 497.495 40.7878 498.834 39.8641C500.174 38.9404 501.652 38.3169 503.268 37.9936C504.931 37.6241 506.94 37.4394 509.295 37.4394C513.914 37.4394 517.285 38.2938 519.41 40.0027C521.534 41.6653 522.597 44.5057 522.597 48.5238V67.7831C522.597 69.2148 522.643 70.7158 522.735 72.2861C522.874 73.8564 523.266 75.0572 523.913 75.8886H513.105C512.875 75.242 512.713 74.5492 512.62 73.8102C512.574 73.0713 512.528 72.3323 512.482 71.5934H512.343C511.558 73.256 510.381 74.5492 508.81 75.4729C507.24 76.3966 505.485 76.8585 503.545 76.8585C500.358 76.8585 497.887 75.9809 496.132 74.2259C494.424 72.4247 493.569 69.4919 493.569 65.4276C493.569 63.2107 493.985 61.271 494.816 59.6083C495.647 57.8994 496.756 56.6524 498.141 55.8673C499.527 55.0821 501.143 54.4817 502.991 54.0661C504.884 53.6504 506.616 53.2347 508.187 52.8191C509.018 52.5881 509.688 52.3803 510.196 52.1956C510.75 51.9646 511.166 51.7106 511.443 51.4335C511.766 51.1102 511.974 50.7176 512.066 50.2558C512.159 49.7939 512.205 49.2166 512.205 48.5238C512.205 47.3692 511.928 46.4686 511.374 45.822C510.819 45.1292 509.919 44.7828 508.672 44.7828C507.101 44.7828 506.039 45.2447 505.485 46.1684C504.931 47.0459 504.63 48.2929 504.584 49.9094H494.608Z" fill="black"/>
<path d="M529.455 38.4093H540.262V42.8431H540.401C541.186 41.1804 542.364 39.8641 543.934 38.8942C545.504 37.9243 547.329 37.4394 549.407 37.4394C552.594 37.4394 555.018 38.2707 556.681 39.9334C558.344 41.5961 559.175 44.2286 559.175 47.8311V75.8886H547.952V50.3251C547.952 48.9857 547.675 47.9465 547.121 47.2076C546.567 46.4224 545.758 46.0298 544.696 46.0298C543.634 46.0298 542.687 46.4686 541.856 47.3461C541.071 48.1774 540.678 49.5168 540.678 51.3642V75.8886H529.455V38.4093Z" fill="black"/>
</svg>
