<svg width="560" height="89" viewBox="0 0 560 89" fill="none" xmlns="http://www.w3.org/2000/svg">
<path fill-rule="evenodd" clip-rule="evenodd" d="M75.8311 0H0V75.8311H75.8311V0ZM60.6649 60.6649H45.4987V38.1964L60.6649 44.937V60.6649ZM45.4987 38.1964L30.3324 31.4559V15.1662H15.1662V60.6649H30.3324V44.937L45.4987 38.1964ZM60.6649 31.4559L45.4987 38.1964V15.1662H60.6649V31.4559Z" fill="#3C50E0"/>
<path d="M100.81 26.3642H112.449V45.9005H112.587L123.464 26.3642H136.003L123.048 47.7017L137.597 75.8285H124.503L115.566 57.1928L112.449 61.973V75.8285H100.81V26.3642Z" fill="#3C50E0"/>
<path d="M153.496 76.7984C150.078 76.7984 147.33 76.3135 145.252 75.3436C143.22 74.3275 141.672 72.9419 140.61 71.1869C139.548 69.4319 138.855 67.3766 138.532 65.0212C138.208 62.6195 138.047 60.0101 138.047 57.1928C138.047 54.3755 138.232 51.766 138.601 49.3644C139.017 46.9628 139.779 44.8844 140.887 43.1294C142.042 41.3282 143.612 39.9195 145.598 38.9034C147.63 37.8874 150.263 37.3793 153.496 37.3793C156.913 37.3793 159.638 37.8874 161.671 38.9034C163.703 39.8733 165.25 41.2358 166.312 42.9908C167.421 44.7459 168.136 46.8242 168.46 49.2258C168.783 51.5813 168.945 54.1677 168.945 56.985C168.945 59.8022 168.737 62.4117 168.321 64.8133C167.952 67.215 167.19 69.3164 166.035 71.1176C164.927 72.8727 163.356 74.2582 161.324 75.2743C159.338 76.2904 156.729 76.7984 153.496 76.7984ZM157.722 57.1235C157.722 54.8143 157.652 52.8745 157.514 51.3042C157.422 49.6877 157.214 48.3945 156.89 47.4246C156.613 46.4547 156.198 45.7619 155.643 45.3463C155.135 44.9306 154.443 44.7228 153.565 44.7228C151.902 44.7228 150.771 45.6465 150.17 47.4939C149.57 49.3413 149.27 52.5281 149.27 57.0542C149.27 61.6266 149.57 64.8364 150.17 66.6838C150.771 68.5312 151.902 69.455 153.565 69.455C154.443 69.455 155.135 69.2471 155.643 68.8315C156.198 68.4158 156.613 67.723 156.89 66.7531C157.214 65.7832 157.422 64.5131 157.514 62.9428C157.652 61.3725 157.722 59.4328 157.722 57.1235Z" fill="#3C50E0"/>
<path d="M192.361 52.4819C192.361 49.7108 192.014 47.7248 191.321 46.524C190.675 45.3232 189.613 44.7228 188.135 44.7228C187.211 44.7228 186.472 45.023 185.918 45.6234C185.364 46.1776 184.925 46.9859 184.602 48.0481C184.324 49.1104 184.14 50.4036 184.047 51.9277C183.955 53.4518 183.909 55.1837 183.909 57.1235C183.909 59.248 183.955 61.0954 184.047 62.6657C184.14 64.1898 184.324 65.4599 184.602 66.476C184.925 67.4921 185.364 68.2541 185.918 68.7622C186.472 69.224 187.211 69.455 188.135 69.455C188.966 69.455 189.636 69.3164 190.144 69.0393C190.698 68.716 191.114 68.208 191.391 67.5152C191.714 66.8224 191.945 65.9218 192.083 64.8133C192.222 63.6587 192.314 62.2501 192.361 60.5874H202.752C202.706 66.3605 201.482 70.5172 199.081 73.0574C196.725 75.5514 193.007 76.7984 187.927 76.7984C184.371 76.7984 181.576 76.2211 179.544 75.0665C177.558 73.9118 176.034 72.3646 174.972 70.4249C173.956 68.4851 173.309 66.2451 173.032 63.7049C172.801 61.1647 172.686 58.5091 172.686 55.738C172.686 53.1054 172.894 50.6807 173.309 48.4638C173.771 46.2007 174.579 44.2609 175.734 42.6444C176.889 40.9818 178.436 39.6886 180.376 38.7649C182.362 37.8412 184.879 37.3793 187.927 37.3793C190.883 37.3793 193.307 37.7488 195.201 38.4878C197.141 39.2267 198.665 40.2659 199.773 41.6053C200.882 42.8985 201.644 44.4919 202.06 46.3854C202.521 48.2329 202.752 50.265 202.752 52.4819H192.361Z" fill="#3C50E0"/>
<path d="M216.847 64.2591C216.847 65.7371 217.124 66.9148 217.678 67.7923C218.232 68.6236 219.04 69.0393 220.103 69.0393C221.303 69.0393 222.343 68.6698 223.22 67.9308C224.144 67.1919 224.606 65.8525 224.606 63.9127C224.606 62.3424 224.606 61.0493 224.606 60.0332C224.652 59.0171 224.675 58.1165 224.675 57.3313C222.92 58.255 221.581 58.8555 220.657 59.1326C219.779 59.3635 219.087 59.6868 218.578 60.1025C217.978 60.5643 217.539 61.1185 217.262 61.7651C216.985 62.3655 216.847 63.1969 216.847 64.2591ZM207.078 49.8493C207.125 47.2168 207.494 45.1154 208.187 43.5451C208.926 41.9748 209.965 40.7278 211.304 39.8041C212.644 38.8804 214.122 38.2569 215.738 37.9336C217.401 37.5641 219.41 37.3793 221.765 37.3793C226.384 37.3793 229.755 38.2338 231.88 39.9426C234.004 41.6053 235.067 44.4457 235.067 48.4638V67.723C235.067 69.1547 235.113 70.6558 235.205 72.2261C235.344 73.7964 235.736 74.9972 236.383 75.8285H225.576C225.345 75.1819 225.183 74.4891 225.091 73.7502C225.044 73.0112 224.998 72.2723 224.952 71.5333H224.813C224.028 73.196 222.851 74.4891 221.28 75.4128C219.71 76.3366 217.955 76.7984 216.015 76.7984C212.828 76.7984 210.358 75.9209 208.602 74.1658C206.894 72.3646 206.039 69.4319 206.039 65.3676C206.039 63.1507 206.455 61.2109 207.286 59.5482C208.118 57.8394 209.226 56.5924 210.612 55.8072C211.997 55.0221 213.614 54.4217 215.461 54.006C217.355 53.5903 219.087 53.1747 220.657 52.759C221.488 52.5281 222.158 52.3202 222.666 52.1355C223.22 51.9046 223.636 51.6506 223.913 51.3735C224.236 51.0502 224.444 50.6576 224.536 50.1957C224.629 49.7339 224.675 49.1566 224.675 48.4638C224.675 47.3092 224.398 46.4085 223.844 45.7619C223.289 45.0692 222.389 44.7228 221.142 44.7228C219.571 44.7228 218.509 45.1846 217.955 46.1083C217.401 46.9859 217.101 48.2329 217.054 49.8493H207.078Z" fill="#3C50E0"/>
<path d="M260.007 52.4126C260.007 49.7801 259.753 47.771 259.245 46.3854C258.783 44.9999 257.767 44.3071 256.196 44.3071C254.349 44.3071 253.171 45.023 252.663 46.4547C252.155 47.8865 251.901 49.8724 251.901 52.4126H260.007ZM251.901 58.9247V61.2109C251.901 64.1206 252.178 66.2913 252.732 67.723C253.287 69.1547 254.372 69.8706 255.988 69.8706C257.466 69.8706 258.482 69.3164 259.037 68.208C259.591 67.0995 259.937 65.3676 260.076 63.0121H270.468C270.375 67.723 269.105 71.21 266.657 73.4731C264.209 75.69 260.63 76.7984 255.919 76.7984C252.363 76.7984 249.569 76.2211 247.537 75.0665C245.551 73.9118 244.027 72.3646 242.964 70.4249C241.948 68.4851 241.302 66.2451 241.024 63.7049C240.794 61.1647 240.678 58.5091 240.678 55.738C240.678 53.1054 240.886 50.6807 241.302 48.4638C241.763 46.2007 242.572 44.2609 243.726 42.6444C244.881 40.9818 246.428 39.6886 248.368 38.7649C250.354 37.8412 252.871 37.3793 255.919 37.3793C259.383 37.3793 262.108 37.9105 264.094 38.9727C266.08 39.9888 267.558 41.4667 268.528 43.4065C269.544 45.3001 270.167 47.5632 270.398 50.1957C270.675 52.8283 270.814 55.7379 270.814 58.9247H251.901Z" fill="#3C50E0"/>
<path d="M275.556 26.3642H286.779V75.8285H275.556V26.3642Z" fill="#3C50E0"/>
<path d="M293.552 25.8099H304.775V34.4004H293.552V25.8099ZM293.552 38.3492H304.775V75.8285H293.552V38.3492Z" fill="#3C50E0"/>
<path d="M341.39 67.2381H344.923C347.279 67.2381 348.918 66.6146 349.842 65.3676C350.766 64.0744 351.228 62.5503 351.228 60.7952C351.228 58.3012 350.65 56.5231 349.496 55.4608C348.387 54.3986 346.932 53.8675 345.131 53.8675H341.39V67.2381ZM341.39 46.1083H344.577C346.655 46.1083 348.11 45.5772 348.941 44.5149C349.819 43.4527 350.258 42.044 350.258 40.289C350.258 39.6886 350.165 39.0651 349.981 38.4185C349.796 37.7719 349.473 37.1946 349.011 36.6866C348.595 36.1785 348.018 35.7629 347.279 35.4396C346.586 35.1163 345.708 34.9546 344.646 34.9546H341.39V46.1083ZM329.751 26.3642H347.833C352.082 26.3642 355.477 27.3802 358.017 29.4124C360.603 31.3983 361.896 34.4466 361.896 38.5571C361.896 41.4667 361.18 43.9376 359.749 45.9698C358.363 48.0019 356.493 49.2489 354.137 49.7108V49.8493C355.061 49.9879 356.054 50.2419 357.116 50.6114C358.178 50.9347 359.171 51.5351 360.095 52.4126C361.019 53.2901 361.781 54.4909 362.381 56.0151C362.982 57.5392 363.282 59.5713 363.282 62.1115C363.282 63.5894 363.074 65.1366 362.658 66.7531C362.243 68.3234 361.435 69.8013 360.234 71.1869C359.079 72.5263 357.44 73.6347 355.315 74.5122C353.19 75.3898 350.396 75.8285 346.932 75.8285H329.751V26.3642Z" fill="#3C50E0"/>
<path d="M387.129 52.4126C387.129 49.7801 386.875 47.771 386.367 46.3854C385.905 44.9999 384.889 44.3071 383.318 44.3071C381.471 44.3071 380.293 45.023 379.785 46.4547C379.277 47.8865 379.023 49.8724 379.023 52.4126H387.129ZM379.023 58.9247V61.2109C379.023 64.1206 379.3 66.2913 379.854 67.723C380.409 69.1547 381.494 69.8706 383.111 69.8706C384.588 69.8706 385.605 69.3164 386.159 68.208C386.713 67.0995 387.059 65.3676 387.198 63.0121H397.59C397.497 67.723 396.227 71.21 393.779 73.4731C391.332 75.69 387.752 76.7984 383.041 76.7984C379.485 76.7984 376.691 76.2211 374.659 75.0665C372.673 73.9118 371.149 72.3646 370.086 70.4249C369.07 68.4851 368.424 66.2451 368.147 63.7049C367.916 61.1647 367.8 58.5091 367.8 55.738C367.8 53.1054 368.008 50.6807 368.424 48.4638C368.885 46.2007 369.694 44.2609 370.848 42.6444C372.003 40.9818 373.55 39.6886 375.49 38.7649C377.476 37.8412 379.993 37.3793 383.041 37.3793C386.505 37.3793 389.23 37.9105 391.216 38.9727C393.202 39.9888 394.68 41.4667 395.65 43.4065C396.666 45.3001 397.289 47.5632 397.52 50.1957C397.797 52.8283 397.936 55.7379 397.936 58.9247H379.023Z" fill="#3C50E0"/>
<path d="M403.855 46.1083H399.214V38.3492H403.855V27.334H415.078V38.3492H420.274V46.1083H415.078V65.0212C415.078 66.3605 415.332 67.2843 415.841 67.7923C416.395 68.2541 417.342 68.4851 418.681 68.4851C418.912 68.4851 419.166 68.4851 419.443 68.4851C419.766 68.4389 420.043 68.3927 420.274 68.3465V75.8285C418.104 76.1056 415.956 76.2442 413.831 76.2442C411.892 76.2442 410.275 76.1287 408.982 75.8978C407.689 75.6669 406.65 75.205 405.865 74.5122C405.126 73.7733 404.594 72.7341 404.271 71.3947C403.994 70.0554 403.855 68.3003 403.855 66.1296V46.1083Z" fill="#3C50E0"/>
<path d="M438.455 76.7984C435.037 76.7984 432.289 76.3135 430.211 75.3436C428.179 74.3275 426.631 72.9419 425.569 71.1869C424.507 69.4319 423.814 67.3766 423.491 65.0212C423.168 62.6195 423.006 60.0101 423.006 57.1928C423.006 54.3755 423.191 51.766 423.56 49.3644C423.976 46.9628 424.738 44.8844 425.846 43.1294C427.001 41.3282 428.571 39.9195 430.557 38.9034C432.589 37.8874 435.222 37.3793 438.455 37.3793C441.873 37.3793 444.597 37.8874 446.63 38.9034C448.662 39.8733 450.209 41.2358 451.271 42.9908C452.38 44.7459 453.096 46.8242 453.419 49.2258C453.742 51.5813 453.904 54.1677 453.904 56.985C453.904 59.8022 453.696 62.4117 453.28 64.8133C452.911 67.215 452.149 69.3164 450.994 71.1176C449.886 72.8727 448.315 74.2582 446.283 75.2743C444.297 76.2904 441.688 76.7984 438.455 76.7984ZM442.681 57.1235C442.681 54.8143 442.612 52.8745 442.473 51.3042C442.381 49.6877 442.173 48.3945 441.849 47.4246C441.572 46.4547 441.157 45.7619 440.602 45.3463C440.094 44.9306 439.402 44.7228 438.524 44.7228C436.861 44.7228 435.73 45.6465 435.13 47.4939C434.529 49.3413 434.229 52.5281 434.229 57.0542C434.229 61.6266 434.529 64.8364 435.13 66.6838C435.73 68.5312 436.861 69.455 438.524 69.455C439.402 69.455 440.094 69.2471 440.602 68.8315C441.157 68.4158 441.572 67.723 441.849 66.7531C442.173 65.7832 442.381 64.5131 442.473 62.9428C442.612 61.3725 442.681 59.4328 442.681 57.1235Z" fill="#3C50E0"/>
<path d="M469.907 56.8464C469.907 58.5091 469.93 60.0563 469.976 61.488C470.069 62.9198 470.253 64.1667 470.53 65.229C470.808 66.2913 471.2 67.1226 471.708 67.723C472.262 68.3234 473.024 68.6236 473.994 68.6236C475.01 68.6236 475.796 68.3696 476.35 67.8616C476.95 67.3074 477.389 66.5453 477.666 65.5754C477.943 64.5593 478.105 63.3585 478.151 61.973C478.243 60.5874 478.29 59.0402 478.29 57.3313C478.29 55.8072 478.243 54.3524 478.151 52.9668C478.105 51.5351 477.943 50.2881 477.666 49.2258C477.389 48.1174 476.95 47.2399 476.35 46.5933C475.749 45.9005 474.941 45.5541 473.925 45.5541C472.262 45.5541 471.177 46.524 470.669 48.4638C470.161 50.4036 469.907 53.1978 469.907 56.8464ZM458.892 38.3492H469.699V42.9216H469.838C470.022 42.3212 470.3 41.6976 470.669 41.0511C471.085 40.3583 471.616 39.7579 472.262 39.2498C472.955 38.6956 473.763 38.2569 474.687 37.9336C475.611 37.5641 476.696 37.3793 477.943 37.3793C479.791 37.3793 481.43 37.7488 482.862 38.4878C484.34 39.1806 485.564 40.3121 486.534 41.8824C487.504 43.4065 488.242 45.3925 488.751 47.8403C489.259 50.2881 489.513 53.267 489.513 56.7771C489.513 59.6868 489.374 62.3655 489.097 64.8133C488.82 67.2612 488.289 69.3857 487.504 71.1869C486.718 72.9419 485.61 74.3275 484.178 75.3436C482.746 76.3135 480.899 76.7984 478.636 76.7984C477.112 76.7984 475.565 76.4751 473.994 75.8285C472.424 75.1357 471.177 73.7733 470.253 71.7411H470.115V88.0214H458.892V38.3492Z" fill="#3C50E0"/>
<path d="M504.376 64.2591C504.376 65.7371 504.654 66.9148 505.208 67.7923C505.762 68.6236 506.57 69.0393 507.633 69.0393C508.833 69.0393 509.872 68.6698 510.75 67.9308C511.674 67.1919 512.136 65.8525 512.136 63.9127C512.136 62.3424 512.136 61.0493 512.136 60.0332C512.182 59.0171 512.205 58.1165 512.205 57.3313C510.45 58.255 509.11 58.8555 508.187 59.1326C507.309 59.3635 506.616 59.6868 506.108 60.1025C505.508 60.5643 505.069 61.1185 504.792 61.7651C504.515 62.3655 504.376 63.1969 504.376 64.2591ZM494.608 49.8493C494.654 47.2168 495.024 45.1154 495.717 43.5451C496.456 41.9748 497.495 40.7278 498.834 39.8041C500.174 38.8804 501.652 38.2569 503.268 37.9336C504.931 37.5641 506.94 37.3793 509.295 37.3793C513.914 37.3793 517.285 38.2338 519.41 39.9426C521.534 41.6053 522.597 44.4457 522.597 48.4638V67.723C522.597 69.1547 522.643 70.6558 522.735 72.2261C522.874 73.7964 523.266 74.9972 523.913 75.8285H513.105C512.875 75.1819 512.713 74.4891 512.62 73.7502C512.574 73.0112 512.528 72.2723 512.482 71.5333H512.343C511.558 73.196 510.381 74.4891 508.81 75.4128C507.24 76.3366 505.485 76.7984 503.545 76.7984C500.358 76.7984 497.887 75.9209 496.132 74.1658C494.424 72.3646 493.569 69.4319 493.569 65.3676C493.569 63.1507 493.985 61.2109 494.816 59.5482C495.647 57.8394 496.756 56.5924 498.141 55.8072C499.527 55.0221 501.143 54.4217 502.991 54.006C504.884 53.5903 506.616 53.1747 508.187 52.759C509.018 52.5281 509.688 52.3202 510.196 52.1355C510.75 51.9046 511.166 51.6506 511.443 51.3735C511.766 51.0502 511.974 50.6576 512.066 50.1957C512.159 49.7339 512.205 49.1566 512.205 48.4638C512.205 47.3092 511.928 46.4085 511.374 45.7619C510.819 45.0692 509.919 44.7228 508.672 44.7228C507.101 44.7228 506.039 45.1846 505.485 46.1083C504.931 46.9859 504.63 48.2329 504.584 49.8493H494.608Z" fill="#3C50E0"/>
<path d="M529.455 38.3492H540.262V42.783H540.401C541.186 41.1203 542.364 39.8041 543.934 38.8342C545.504 37.8643 547.329 37.3793 549.407 37.3793C552.594 37.3793 555.018 38.2107 556.681 39.8733C558.344 41.536 559.175 44.1686 559.175 47.771V75.8285H547.952V50.265C547.952 48.9256 547.675 47.8865 547.121 47.1475C546.567 46.3624 545.758 45.9698 544.696 45.9698C543.634 45.9698 542.687 46.4085 541.856 47.2861C541.071 48.1174 540.678 49.4568 540.678 51.3042V75.8285H529.455V38.3492Z" fill="#3C50E0"/>
</svg>
