<svg width="560" height="89" viewBox="0 0 560 89" fill="none" xmlns="http://www.w3.org/2000/svg">
<path fill-rule="evenodd" clip-rule="evenodd" d="M75.8311 0.0200195H0V75.8511H75.8311V0.0200195ZM60.6649 60.6849H45.4987V38.2164L60.6649 44.957V60.6849ZM45.4987 38.2164L30.3324 31.4759V15.1862H15.1662V60.6849H30.3324V44.957L45.4987 38.2164ZM60.6649 31.4759L45.4987 38.2164V15.1862H60.6649V31.4759Z" fill="#EBEDFC"/>
<path d="M100.81 26.3842H112.449V45.9205H112.587L123.464 26.3842H136.003L123.048 47.7217L137.597 75.8485H124.503L115.566 57.2128L112.449 61.993V75.8485H100.81V26.3842Z" fill="#EBEDFC"/>
<path d="M153.496 76.8184C150.078 76.8184 147.33 76.3335 145.252 75.3636C143.22 74.3475 141.672 72.962 140.61 71.2069C139.548 69.4519 138.855 67.3966 138.532 65.0412C138.208 62.6396 138.047 60.0301 138.047 57.2128C138.047 54.3955 138.232 51.786 138.601 49.3844C139.017 46.9828 139.779 44.9044 140.887 43.1494C142.042 41.3482 143.612 39.9395 145.598 38.9235C147.63 37.9074 150.263 37.3994 153.496 37.3994C156.913 37.3994 159.638 37.9074 161.671 38.9235C163.703 39.8934 165.25 41.2558 166.312 43.0109C167.421 44.7659 168.136 46.8442 168.46 49.2459C168.783 51.6013 168.945 54.1877 168.945 57.005C168.945 59.8223 168.737 62.4317 168.321 64.8334C167.952 67.235 167.19 69.3364 166.035 71.1376C164.927 72.8927 163.356 74.2782 161.324 75.2943C159.338 76.3104 156.729 76.8184 153.496 76.8184ZM157.722 57.1435C157.722 54.8343 157.652 52.8945 157.514 51.3242C157.422 49.7077 157.214 48.4145 156.89 47.4446C156.613 46.4747 156.198 45.782 155.643 45.3663C155.135 44.9506 154.443 44.7428 153.565 44.7428C151.902 44.7428 150.771 45.6665 150.17 47.5139C149.57 49.3613 149.27 52.5481 149.27 57.0742C149.27 61.6466 149.57 64.8565 150.17 66.7039C150.771 68.5513 151.902 69.475 153.565 69.475C154.443 69.475 155.135 69.2671 155.643 68.8515C156.198 68.4358 156.613 67.743 156.89 66.7731C157.214 65.8033 157.422 64.5332 157.514 62.9629C157.652 61.3926 157.722 59.4528 157.722 57.1435Z" fill="#EBEDFC"/>
<path d="M192.361 52.5019C192.361 49.7308 192.014 47.7448 191.321 46.544C190.675 45.3432 189.613 44.7428 188.135 44.7428C187.211 44.7428 186.472 45.043 185.918 45.6434C185.364 46.1976 184.925 47.0059 184.602 48.0681C184.324 49.1304 184.14 50.4236 184.047 51.9477C183.955 53.4718 183.909 55.2038 183.909 57.1435C183.909 59.2681 183.955 61.1155 184.047 62.6858C184.14 64.2099 184.324 65.48 184.602 66.496C184.925 67.5121 185.364 68.2742 185.918 68.7822C186.472 69.244 187.211 69.475 188.135 69.475C188.966 69.475 189.636 69.3364 190.144 69.0593C190.698 68.736 191.114 68.228 191.391 67.5352C191.714 66.8424 191.945 65.9418 192.083 64.8334C192.222 63.6787 192.314 62.2701 192.361 60.6074H202.752C202.706 66.3806 201.482 70.5372 199.081 73.0774C196.725 75.5714 193.007 76.8184 187.927 76.8184C184.371 76.8184 181.576 76.2411 179.544 75.0865C177.558 73.9318 176.034 72.3847 174.972 70.4449C173.956 68.5051 173.309 66.2651 173.032 63.7249C172.801 61.1847 172.686 58.5291 172.686 55.758C172.686 53.1254 172.894 50.7007 173.309 48.4838C173.771 46.2207 174.579 44.2809 175.734 42.6645C176.889 41.0018 178.436 39.7086 180.376 38.7849C182.362 37.8612 184.879 37.3994 187.927 37.3994C190.883 37.3994 193.307 37.7688 195.201 38.5078C197.141 39.2468 198.665 40.2859 199.773 41.6253C200.882 42.9185 201.644 44.5119 202.06 46.4055C202.521 48.2529 202.752 50.285 202.752 52.5019H192.361Z" fill="#EBEDFC"/>
<path d="M216.847 64.2791C216.847 65.7571 217.124 66.9348 217.678 67.8123C218.232 68.6436 219.04 69.0593 220.103 69.0593C221.303 69.0593 222.343 68.6898 223.22 67.9509C224.144 67.2119 224.606 65.8725 224.606 63.9328C224.606 62.3625 224.606 61.0693 224.606 60.0532C224.652 59.0371 224.675 58.1365 224.675 57.3514C222.92 58.2751 221.581 58.8755 220.657 59.1526C219.779 59.3835 219.087 59.7068 218.578 60.1225C217.978 60.5843 217.539 61.1385 217.262 61.7851C216.985 62.3855 216.847 63.2169 216.847 64.2791ZM207.078 49.8694C207.125 47.2368 207.494 45.1354 208.187 43.5651C208.926 41.9948 209.965 40.7478 211.304 39.8241C212.644 38.9004 214.122 38.2769 215.738 37.9536C217.401 37.5841 219.41 37.3994 221.765 37.3994C226.384 37.3994 229.755 38.2538 231.88 39.9626C234.004 41.6253 235.067 44.4657 235.067 48.4838V67.743C235.067 69.1748 235.113 70.6758 235.205 72.2461C235.344 73.8164 235.736 75.0172 236.383 75.8485H225.576C225.345 75.202 225.183 74.5092 225.091 73.7702C225.044 73.0312 224.998 72.2923 224.952 71.5533H224.813C224.028 73.216 222.851 74.5092 221.28 75.4329C219.71 76.3566 217.955 76.8184 216.015 76.8184C212.828 76.8184 210.358 75.9409 208.602 74.1859C206.894 72.3846 206.039 69.4519 206.039 65.3876C206.039 63.1707 206.455 61.2309 207.286 59.5682C208.118 57.8594 209.226 56.6124 210.612 55.8272C211.997 55.0421 213.614 54.4417 215.461 54.026C217.355 53.6104 219.087 53.1947 220.657 52.779C221.488 52.5481 222.158 52.3403 222.666 52.1555C223.22 51.9246 223.636 51.6706 223.913 51.3935C224.236 51.0702 224.444 50.6776 224.536 50.2157C224.629 49.7539 224.675 49.1766 224.675 48.4838C224.675 47.3292 224.398 46.4286 223.844 45.782C223.289 45.0892 222.389 44.7428 221.142 44.7428C219.571 44.7428 218.509 45.2047 217.955 46.1284C217.401 47.0059 217.101 48.2529 217.054 49.8694H207.078Z" fill="#EBEDFC"/>
<path d="M260.007 52.4326C260.007 49.8001 259.753 47.791 259.245 46.4055C258.783 45.0199 257.767 44.3271 256.196 44.3271C254.349 44.3271 253.171 45.043 252.663 46.4747C252.155 47.9065 251.901 49.8924 251.901 52.4326H260.007ZM251.901 58.9447V61.2309C251.901 64.1406 252.178 66.3113 252.732 67.743C253.287 69.1748 254.372 69.8906 255.988 69.8906C257.466 69.8906 258.482 69.3364 259.037 68.228C259.591 67.1195 259.937 65.3876 260.076 63.0321H270.468C270.375 67.743 269.105 71.23 266.657 73.4931C264.209 75.71 260.63 76.8184 255.919 76.8184C252.363 76.8184 249.569 76.2411 247.537 75.0865C245.551 73.9318 244.027 72.3847 242.964 70.4449C241.948 68.5051 241.302 66.2651 241.024 63.7249C240.794 61.1847 240.678 58.5291 240.678 55.758C240.678 53.1254 240.886 50.7007 241.302 48.4838C241.763 46.2207 242.572 44.2809 243.726 42.6645C244.881 41.0018 246.428 39.7086 248.368 38.7849C250.354 37.8612 252.871 37.3994 255.919 37.3994C259.383 37.3994 262.108 37.9305 264.094 38.9927C266.08 40.0088 267.558 41.4867 268.528 43.4265C269.544 45.3201 270.167 47.5832 270.398 50.2157C270.675 52.8483 270.814 55.758 270.814 58.9447H251.901Z" fill="#EBEDFC"/>
<path d="M275.556 26.3842H286.779V75.8485H275.556V26.3842Z" fill="#EBEDFC"/>
<path d="M293.552 25.83H304.775V34.4204H293.552V25.83ZM293.552 38.3692H304.775V75.8485H293.552V38.3692Z" fill="#EBEDFC"/>
<path d="M341.39 67.2581H344.923C347.279 67.2581 348.918 66.6346 349.842 65.3876C350.766 64.0944 351.228 62.5703 351.228 60.8153C351.228 58.3212 350.65 56.5431 349.496 55.4809C348.387 54.4186 346.932 53.8875 345.131 53.8875H341.39V67.2581ZM341.39 46.1284H344.577C346.655 46.1284 348.11 45.5972 348.941 44.535C349.819 43.4727 350.258 42.0641 350.258 40.309C350.258 39.7086 350.165 39.0851 349.981 38.4385C349.796 37.7919 349.473 37.2146 349.011 36.7066C348.595 36.1985 348.018 35.7829 347.279 35.4596C346.586 35.1363 345.708 34.9746 344.646 34.9746H341.39V46.1284ZM329.751 26.3842H347.833C352.082 26.3842 355.477 27.4003 358.017 29.4324C360.603 31.4184 361.896 34.4666 361.896 38.5771C361.896 41.4867 361.18 43.9576 359.749 45.9898C358.363 48.0219 356.493 49.269 354.137 49.7308V49.8694C355.061 50.0079 356.054 50.2619 357.116 50.6314C358.178 50.9547 359.171 51.5551 360.095 52.4326C361.019 53.3102 361.781 54.511 362.381 56.0351C362.982 57.5592 363.282 59.5913 363.282 62.1315C363.282 63.6095 363.074 65.1567 362.658 66.7731C362.243 68.3434 361.435 69.8214 360.234 71.2069C359.079 72.5463 357.44 73.6547 355.315 74.5323C353.19 75.4098 350.396 75.8485 346.932 75.8485H329.751V26.3842Z" fill="#EBEDFC"/>
<path d="M387.129 52.4326C387.129 49.8001 386.875 47.791 386.367 46.4055C385.905 45.0199 384.889 44.3271 383.318 44.3271C381.471 44.3271 380.293 45.043 379.785 46.4747C379.277 47.9065 379.023 49.8924 379.023 52.4326H387.129ZM379.023 58.9447V61.2309C379.023 64.1406 379.3 66.3113 379.854 67.743C380.409 69.1748 381.494 69.8906 383.111 69.8906C384.588 69.8906 385.605 69.3364 386.159 68.228C386.713 67.1195 387.059 65.3876 387.198 63.0321H397.59C397.497 67.743 396.227 71.23 393.779 73.4931C391.332 75.71 387.752 76.8184 383.041 76.8184C379.485 76.8184 376.691 76.2411 374.659 75.0865C372.673 73.9318 371.149 72.3847 370.086 70.4449C369.07 68.5051 368.424 66.2651 368.147 63.7249C367.916 61.1847 367.8 58.5291 367.8 55.758C367.8 53.1254 368.008 50.7007 368.424 48.4838C368.885 46.2207 369.694 44.2809 370.848 42.6645C372.003 41.0018 373.55 39.7086 375.49 38.7849C377.476 37.8612 379.993 37.3994 383.041 37.3994C386.505 37.3994 389.23 37.9305 391.216 38.9927C393.202 40.0088 394.68 41.4867 395.65 43.4265C396.666 45.3201 397.289 47.5832 397.52 50.2157C397.797 52.8483 397.936 55.758 397.936 58.9447H379.023Z" fill="#EBEDFC"/>
<path d="M403.855 46.1284H399.214V38.3692H403.855V27.3541H415.078V38.3692H420.274V46.1284H415.078V65.0412C415.078 66.3806 415.332 67.3043 415.841 67.8123C416.395 68.2742 417.342 68.5051 418.681 68.5051C418.912 68.5051 419.166 68.5051 419.443 68.5051C419.766 68.4589 420.043 68.4127 420.274 68.3665V75.8485C418.104 76.1257 415.956 76.2642 413.831 76.2642C411.892 76.2642 410.275 76.1487 408.982 75.9178C407.689 75.6869 406.65 75.225 405.865 74.5323C405.126 73.7933 404.594 72.7541 404.271 71.4148C403.994 70.0754 403.855 68.3204 403.855 66.1496V46.1284Z" fill="#EBEDFC"/>
<path d="M438.455 76.8184C435.037 76.8184 432.289 76.3335 430.211 75.3636C428.179 74.3475 426.631 72.962 425.569 71.2069C424.507 69.4519 423.814 67.3966 423.491 65.0412C423.168 62.6396 423.006 60.0301 423.006 57.2128C423.006 54.3955 423.191 51.786 423.56 49.3844C423.976 46.9828 424.738 44.9044 425.846 43.1494C427.001 41.3482 428.571 39.9395 430.557 38.9235C432.589 37.9074 435.222 37.3994 438.455 37.3994C441.873 37.3994 444.597 37.9074 446.63 38.9235C448.662 39.8934 450.209 41.2558 451.271 43.0109C452.38 44.7659 453.096 46.8442 453.419 49.2459C453.742 51.6013 453.904 54.1877 453.904 57.005C453.904 59.8223 453.696 62.4317 453.28 64.8334C452.911 67.235 452.149 69.3364 450.994 71.1376C449.886 72.8927 448.315 74.2782 446.283 75.2943C444.297 76.3104 441.688 76.8184 438.455 76.8184ZM442.681 57.1435C442.681 54.8343 442.612 52.8945 442.473 51.3242C442.381 49.7077 442.173 48.4145 441.849 47.4446C441.572 46.4747 441.157 45.782 440.602 45.3663C440.094 44.9506 439.402 44.7428 438.524 44.7428C436.861 44.7428 435.73 45.6665 435.13 47.5139C434.529 49.3613 434.229 52.5481 434.229 57.0742C434.229 61.6466 434.529 64.8565 435.13 66.7039C435.73 68.5513 436.861 69.475 438.524 69.475C439.402 69.475 440.094 69.2671 440.602 68.8515C441.157 68.4358 441.572 67.743 441.849 66.7731C442.173 65.8033 442.381 64.5332 442.473 62.9629C442.612 61.3926 442.681 59.4528 442.681 57.1435Z" fill="#EBEDFC"/>
<path d="M469.907 56.8664C469.907 58.5291 469.93 60.0763 469.976 61.508C470.069 62.9398 470.253 64.1868 470.53 65.249C470.808 66.3113 471.2 67.1426 471.708 67.743C472.262 68.3434 473.024 68.6436 473.994 68.6436C475.01 68.6436 475.796 68.3896 476.35 67.8816C476.95 67.3274 477.389 66.5653 477.666 65.5954C477.943 64.5793 478.105 63.3785 478.151 61.993C478.243 60.6074 478.29 59.0602 478.29 57.3514C478.29 55.8272 478.243 54.3724 478.151 52.9869C478.105 51.5551 477.943 50.3081 477.666 49.2459C477.389 48.1374 476.95 47.2599 476.35 46.6133C475.749 45.9205 474.941 45.5741 473.925 45.5741C472.262 45.5741 471.177 46.544 470.669 48.4838C470.161 50.4236 469.907 53.2178 469.907 56.8664ZM458.892 38.3692H469.699V42.9416H469.838C470.022 42.3412 470.3 41.7177 470.669 41.0711C471.085 40.3783 471.616 39.7779 472.262 39.2699C472.955 38.7156 473.763 38.2769 474.687 37.9536C475.611 37.5841 476.696 37.3994 477.943 37.3994C479.791 37.3994 481.43 37.7688 482.862 38.5078C484.34 39.2006 485.564 40.3321 486.534 41.9024C487.504 43.4265 488.242 45.4125 488.751 47.8603C489.259 50.3081 489.513 53.2871 489.513 56.7971C489.513 59.7068 489.374 62.3855 489.097 64.8334C488.82 67.2812 488.289 69.4057 487.504 71.2069C486.718 72.962 485.61 74.3475 484.178 75.3636C482.746 76.3335 480.899 76.8184 478.636 76.8184C477.112 76.8184 475.565 76.4951 473.994 75.8485C472.424 75.1558 471.177 73.7933 470.253 71.7611H470.115V88.0414H458.892V38.3692Z" fill="#EBEDFC"/>
<path d="M504.376 64.2791C504.376 65.7571 504.654 66.9348 505.208 67.8123C505.762 68.6436 506.57 69.0593 507.633 69.0593C508.833 69.0593 509.872 68.6898 510.75 67.9509C511.674 67.2119 512.136 65.8725 512.136 63.9328C512.136 62.3625 512.136 61.0693 512.136 60.0532C512.182 59.0371 512.205 58.1365 512.205 57.3514C510.45 58.2751 509.11 58.8755 508.187 59.1526C507.309 59.3835 506.616 59.7068 506.108 60.1225C505.508 60.5843 505.069 61.1385 504.792 61.7851C504.515 62.3855 504.376 63.2169 504.376 64.2791ZM494.608 49.8694C494.654 47.2368 495.024 45.1354 495.717 43.5651C496.456 41.9948 497.495 40.7478 498.834 39.8241C500.174 38.9004 501.652 38.2769 503.268 37.9536C504.931 37.5841 506.94 37.3994 509.295 37.3994C513.914 37.3994 517.285 38.2538 519.41 39.9626C521.534 41.6253 522.597 44.4657 522.597 48.4838V67.743C522.597 69.1748 522.643 70.6758 522.735 72.2461C522.874 73.8164 523.266 75.0172 523.913 75.8485H513.105C512.875 75.202 512.713 74.5092 512.62 73.7702C512.574 73.0312 512.528 72.2923 512.482 71.5533H512.343C511.558 73.216 510.381 74.5092 508.81 75.4329C507.24 76.3566 505.485 76.8184 503.545 76.8184C500.358 76.8184 497.887 75.9409 496.132 74.1859C494.424 72.3846 493.569 69.4519 493.569 65.3876C493.569 63.1707 493.985 61.2309 494.816 59.5682C495.647 57.8594 496.756 56.6124 498.141 55.8272C499.527 55.0421 501.143 54.4417 502.991 54.026C504.884 53.6104 506.616 53.1947 508.187 52.779C509.018 52.5481 509.688 52.3403 510.196 52.1555C510.75 51.9246 511.166 51.6706 511.443 51.3935C511.766 51.0702 511.974 50.6776 512.066 50.2157C512.159 49.7539 512.205 49.1766 512.205 48.4838C512.205 47.3292 511.928 46.4286 511.374 45.782C510.819 45.0892 509.919 44.7428 508.672 44.7428C507.101 44.7428 506.039 45.2047 505.485 46.1284C504.931 47.0059 504.63 48.2529 504.584 49.8694H494.608Z" fill="#EBEDFC"/>
<path d="M529.455 38.3692H540.262V42.803H540.401C541.186 41.1404 542.364 39.8241 543.934 38.8542C545.504 37.8843 547.329 37.3994 549.407 37.3994C552.594 37.3994 555.018 38.2307 556.681 39.8933C558.344 41.556 559.175 44.1886 559.175 47.791V75.8485H547.952V50.285C547.952 48.9457 547.675 47.9065 547.121 47.1675C546.567 46.3824 545.758 45.9898 544.696 45.9898C543.634 45.9898 542.687 46.4286 541.856 47.3061C541.071 48.1374 540.678 49.4768 540.678 51.3242V75.8485H529.455V38.3692Z" fill="#EBEDFC"/>
</svg>
