<svg width="560" height="89" viewBox="0 0 560 89" fill="none" xmlns="http://www.w3.org/2000/svg">
<path fill-rule="evenodd" clip-rule="evenodd" d="M75.8311 0.0400391H0V75.8711H75.8311V0.0400391ZM60.6649 60.7049H45.4987V38.2365L60.6649 44.977V60.7049ZM45.4987 38.2365L30.3324 31.4959V15.2063H15.1662V60.7049H30.3324V44.977L45.4987 38.2365ZM60.6649 31.4959L45.4987 38.2365V15.2063H60.6649V31.4959Z" fill="white"/>
<path d="M100.81 26.4042H112.449V45.9405H112.587L123.464 26.4042H136.003L123.048 47.7418L137.597 75.8686H124.503L115.566 57.2328L112.449 62.013V75.8686H100.81V26.4042Z" fill="white"/>
<path d="M153.496 76.8384C150.078 76.8384 147.33 76.3535 145.252 75.3836C143.22 74.3675 141.672 72.982 140.61 71.2269C139.548 69.4719 138.855 67.4167 138.532 65.0612C138.208 62.6596 138.047 60.0501 138.047 57.2328C138.047 54.4155 138.232 51.8061 138.601 49.4044C139.017 47.0028 139.779 44.9245 140.887 43.1694C142.042 41.3682 143.612 39.9596 145.598 38.9435C147.63 37.9274 150.263 37.4194 153.496 37.4194C156.913 37.4194 159.638 37.9274 161.671 38.9435C163.703 39.9134 165.25 41.2758 166.312 43.0309C167.421 44.7859 168.136 46.8642 168.46 49.2659C168.783 51.6213 168.945 54.2077 168.945 57.025C168.945 59.8423 168.737 62.4517 168.321 64.8534C167.952 67.255 167.19 69.3564 166.035 71.1577C164.927 72.9127 163.356 74.2983 161.324 75.3143C159.338 76.3304 156.729 76.8384 153.496 76.8384ZM157.722 57.1636C157.722 54.8543 157.652 52.9145 157.514 51.3442C157.422 49.7277 157.214 48.4345 156.89 47.4647C156.613 46.4948 156.198 45.802 155.643 45.3863C155.135 44.9706 154.443 44.7628 153.565 44.7628C151.902 44.7628 150.771 45.6865 150.17 47.5339C149.57 49.3813 149.27 52.5681 149.27 57.0943C149.27 61.6666 149.57 64.8765 150.17 66.7239C150.771 68.5713 151.902 69.495 153.565 69.495C154.443 69.495 155.135 69.2872 155.643 68.8715C156.198 68.4558 156.613 67.7631 156.89 66.7932C157.214 65.8233 157.422 64.5532 157.514 62.9829C157.652 61.4126 157.722 59.4728 157.722 57.1636Z" fill="white"/>
<path d="M192.361 52.5219C192.361 49.7508 192.014 47.7649 191.321 46.564C190.675 45.3632 189.613 44.7628 188.135 44.7628C187.211 44.7628 186.472 45.063 185.918 45.6634C185.364 46.2177 184.925 47.0259 184.602 48.0882C184.324 49.1504 184.14 50.4436 184.047 51.9677C183.955 53.4918 183.909 55.2238 183.909 57.1636C183.909 59.2881 183.955 61.1355 184.047 62.7058C184.14 64.2299 184.324 65.5 184.602 66.5161C184.925 67.5321 185.364 68.2942 185.918 68.8022C186.472 69.2641 187.211 69.495 188.135 69.495C188.966 69.495 189.636 69.3564 190.144 69.0793C190.698 68.756 191.114 68.248 191.391 67.5552C191.714 66.8624 191.945 65.9618 192.083 64.8534C192.222 63.6987 192.314 62.2901 192.361 60.6274H202.752C202.706 66.4006 201.482 70.5573 199.081 73.0974C196.725 75.5914 193.007 76.8384 187.927 76.8384C184.371 76.8384 181.576 76.2611 179.544 75.1065C177.558 73.9519 176.034 72.4047 174.972 70.4649C173.956 68.5251 173.309 66.2851 173.032 63.7449C172.801 61.2048 172.686 58.5491 172.686 55.778C172.686 53.1454 172.894 50.7207 173.309 48.5038C173.771 46.2407 174.579 44.301 175.734 42.6845C176.889 41.0218 178.436 39.7286 180.376 38.8049C182.362 37.8812 184.879 37.4194 187.927 37.4194C190.883 37.4194 193.307 37.7889 195.201 38.5278C197.141 39.2668 198.665 40.3059 199.773 41.6453C200.882 42.9385 201.644 44.5319 202.06 46.4255C202.521 48.2729 202.752 50.305 202.752 52.5219H192.361Z" fill="white"/>
<path d="M216.847 64.2992C216.847 65.7771 217.124 66.9548 217.678 67.8323C218.232 68.6637 219.04 69.0793 220.103 69.0793C221.303 69.0793 222.343 68.7098 223.22 67.9709C224.144 67.2319 224.606 65.8926 224.606 63.9528C224.606 62.3825 224.606 61.0893 224.606 60.0732C224.652 59.0571 224.675 58.1565 224.675 57.3714C222.92 58.2951 221.581 58.8955 220.657 59.1726C219.779 59.4035 219.087 59.7268 218.578 60.1425C217.978 60.6043 217.539 61.1586 217.262 61.8052C216.985 62.4056 216.847 63.2369 216.847 64.2992ZM207.078 49.8894C207.125 47.2568 207.494 45.1554 208.187 43.5851C208.926 42.0148 209.965 40.7678 211.304 39.8441C212.644 38.9204 214.122 38.2969 215.738 37.9736C217.401 37.6041 219.41 37.4194 221.765 37.4194C226.384 37.4194 229.755 38.2738 231.88 39.9827C234.004 41.6453 235.067 44.4857 235.067 48.5038V67.763C235.067 69.1948 235.113 70.6958 235.205 72.2661C235.344 73.8364 235.736 75.0372 236.383 75.8686H225.576C225.345 75.222 225.183 74.5292 225.091 73.7902C225.044 73.0513 224.998 72.3123 224.952 71.5733H224.813C224.028 73.236 222.851 74.5292 221.28 75.4529C219.71 76.3766 217.955 76.8384 216.015 76.8384C212.828 76.8384 210.358 75.9609 208.602 74.2059C206.894 72.4047 206.039 69.4719 206.039 65.4076C206.039 63.1907 206.455 61.2509 207.286 59.5883C208.118 57.8794 209.226 56.6324 210.612 55.8473C211.997 55.0621 213.614 54.4617 215.461 54.046C217.355 53.6304 219.087 53.2147 220.657 52.799C221.488 52.5681 222.158 52.3603 222.666 52.1755C223.22 51.9446 223.636 51.6906 223.913 51.4135C224.236 51.0902 224.444 50.6976 224.536 50.2358C224.629 49.7739 224.675 49.1966 224.675 48.5038C224.675 47.3492 224.398 46.4486 223.844 45.802C223.289 45.1092 222.389 44.7628 221.142 44.7628C219.571 44.7628 218.509 45.2247 217.955 46.1484C217.401 47.0259 217.101 48.2729 217.054 49.8894H207.078Z" fill="white"/>
<path d="M260.007 52.4527C260.007 49.8201 259.753 47.811 259.245 46.4255C258.783 45.0399 257.767 44.3472 256.196 44.3472C254.349 44.3472 253.171 45.063 252.663 46.4948C252.155 47.9265 251.901 49.9125 251.901 52.4527H260.007ZM251.901 58.9648V61.2509C251.901 64.1606 252.178 66.3313 252.732 67.763C253.287 69.1948 254.372 69.9107 255.988 69.9107C257.466 69.9107 258.482 69.3564 259.037 68.248C259.591 67.1396 259.937 65.4076 260.076 63.0522H270.468C270.375 67.763 269.105 71.25 266.657 73.5131C264.209 75.73 260.63 76.8384 255.919 76.8384C252.363 76.8384 249.569 76.2611 247.537 75.1065C245.551 73.9519 244.027 72.4047 242.964 70.4649C241.948 68.5251 241.302 66.2851 241.024 63.7449C240.794 61.2048 240.678 58.5491 240.678 55.778C240.678 53.1454 240.886 50.7207 241.302 48.5038C241.763 46.2407 242.572 44.301 243.726 42.6845C244.881 41.0218 246.428 39.7286 248.368 38.8049C250.354 37.8812 252.871 37.4194 255.919 37.4194C259.383 37.4194 262.108 37.9505 264.094 39.0128C266.08 40.0288 267.558 41.5068 268.528 43.4465C269.544 45.3401 270.167 47.6032 270.398 50.2358C270.675 52.8683 270.814 55.778 270.814 58.9648H251.901Z" fill="white"/>
<path d="M275.556 26.4042H286.779V75.8686H275.556V26.4042Z" fill="white"/>
<path d="M293.552 25.85H304.775V34.4404H293.552V25.85ZM293.552 38.3893H304.775V75.8686H293.552V38.3893Z" fill="white"/>
<path d="M341.39 67.2781H344.923C347.279 67.2781 348.918 66.6546 349.842 65.4076C350.766 64.1144 351.228 62.5903 351.228 60.8353C351.228 58.3413 350.65 56.5631 349.496 55.5009C348.387 54.4386 346.932 53.9075 345.131 53.9075H341.39V67.2781ZM341.39 46.1484H344.577C346.655 46.1484 348.11 45.6172 348.941 44.555C349.819 43.4927 350.258 42.0841 350.258 40.329C350.258 39.7286 350.165 39.1051 349.981 38.4585C349.796 37.8119 349.473 37.2346 349.011 36.7266C348.595 36.2186 348.018 35.8029 347.279 35.4796C346.586 35.1563 345.708 34.9946 344.646 34.9946H341.39V46.1484ZM329.751 26.4042H347.833C352.082 26.4042 355.477 27.4203 358.017 29.4524C360.603 31.4384 361.896 34.4866 361.896 38.5971C361.896 41.5068 361.18 43.9777 359.749 46.0098C358.363 48.042 356.493 49.289 354.137 49.7508V49.8894C355.061 50.0279 356.054 50.282 357.116 50.6514C358.178 50.9747 359.171 51.5751 360.095 52.4527C361.019 53.3302 361.781 54.531 362.381 56.0551C362.982 57.5792 363.282 59.6114 363.282 62.1516C363.282 63.6295 363.074 65.1767 362.658 66.7932C362.243 68.3635 361.435 69.8414 360.234 71.2269C359.079 72.5663 357.44 73.6748 355.315 74.5523C353.19 75.4298 350.396 75.8686 346.932 75.8686H329.751V26.4042Z" fill="white"/>
<path d="M387.129 52.4527C387.129 49.8201 386.875 47.811 386.367 46.4255C385.905 45.0399 384.889 44.3472 383.318 44.3472C381.471 44.3472 380.293 45.063 379.785 46.4948C379.277 47.9265 379.023 49.9125 379.023 52.4527H387.129ZM379.023 58.9648V61.2509C379.023 64.1606 379.3 66.3313 379.854 67.763C380.409 69.1948 381.494 69.9107 383.111 69.9107C384.588 69.9107 385.605 69.3564 386.159 68.248C386.713 67.1396 387.059 65.4076 387.198 63.0522H397.59C397.497 67.763 396.227 71.25 393.779 73.5131C391.332 75.73 387.752 76.8384 383.041 76.8384C379.485 76.8384 376.691 76.2611 374.659 75.1065C372.673 73.9519 371.149 72.4047 370.086 70.4649C369.07 68.5251 368.424 66.2851 368.147 63.7449C367.916 61.2048 367.8 58.5491 367.8 55.778C367.8 53.1454 368.008 50.7207 368.424 48.5038C368.885 46.2407 369.694 44.301 370.848 42.6845C372.003 41.0218 373.55 39.7286 375.49 38.8049C377.476 37.8812 379.993 37.4194 383.041 37.4194C386.505 37.4194 389.23 37.9505 391.216 39.0128C393.202 40.0288 394.68 41.5068 395.65 43.4465C396.666 45.3401 397.289 47.6032 397.52 50.2358C397.797 52.8683 397.936 55.778 397.936 58.9648H379.023Z" fill="white"/>
<path d="M403.855 46.1484H399.214V38.3893H403.855V27.3741H415.078V38.3893H420.274V46.1484H415.078V65.0612C415.078 66.4006 415.332 67.3243 415.841 67.8323C416.395 68.2942 417.342 68.5251 418.681 68.5251C418.912 68.5251 419.166 68.5251 419.443 68.5251C419.766 68.4789 420.043 68.4327 420.274 68.3866V75.8686C418.104 76.1457 415.956 76.2842 413.831 76.2842C411.892 76.2842 410.275 76.1688 408.982 75.9378C407.689 75.7069 406.65 75.2451 405.865 74.5523C405.126 73.8133 404.594 72.7741 404.271 71.4348C403.994 70.0954 403.855 68.3404 403.855 66.1697V46.1484Z" fill="white"/>
<path d="M438.455 76.8384C435.037 76.8384 432.289 76.3535 430.211 75.3836C428.179 74.3675 426.631 72.982 425.569 71.2269C424.507 69.4719 423.814 67.4167 423.491 65.0612C423.168 62.6596 423.006 60.0501 423.006 57.2328C423.006 54.4155 423.191 51.8061 423.56 49.4044C423.976 47.0028 424.738 44.9245 425.846 43.1694C427.001 41.3682 428.571 39.9596 430.557 38.9435C432.589 37.9274 435.222 37.4194 438.455 37.4194C441.873 37.4194 444.597 37.9274 446.63 38.9435C448.662 39.9134 450.209 41.2758 451.271 43.0309C452.38 44.7859 453.096 46.8642 453.419 49.2659C453.742 51.6213 453.904 54.2077 453.904 57.025C453.904 59.8423 453.696 62.4517 453.28 64.8534C452.911 67.255 452.149 69.3564 450.994 71.1577C449.886 72.9127 448.315 74.2983 446.283 75.3143C444.297 76.3304 441.688 76.8384 438.455 76.8384ZM442.681 57.1636C442.681 54.8543 442.612 52.9145 442.473 51.3442C442.381 49.7277 442.173 48.4345 441.849 47.4647C441.572 46.4948 441.157 45.802 440.602 45.3863C440.094 44.9706 439.402 44.7628 438.524 44.7628C436.861 44.7628 435.73 45.6865 435.13 47.5339C434.529 49.3813 434.229 52.5681 434.229 57.0943C434.229 61.6666 434.529 64.8765 435.13 66.7239C435.73 68.5713 436.861 69.495 438.524 69.495C439.402 69.495 440.094 69.2872 440.602 68.8715C441.157 68.4558 441.572 67.7631 441.849 66.7932C442.173 65.8233 442.381 64.5532 442.473 62.9829C442.612 61.4126 442.681 59.4728 442.681 57.1636Z" fill="white"/>
<path d="M469.907 56.8864C469.907 58.5491 469.93 60.0963 469.976 61.528C470.069 62.9598 470.253 64.2068 470.53 65.2691C470.808 66.3313 471.2 67.1626 471.708 67.763C472.262 68.3635 473.024 68.6637 473.994 68.6637C475.01 68.6637 475.796 68.4096 476.35 67.9016C476.95 67.3474 477.389 66.5853 477.666 65.6154C477.943 64.5994 478.105 63.3986 478.151 62.013C478.243 60.6274 478.29 59.0802 478.29 57.3714C478.29 55.8473 478.243 54.3924 478.151 53.0069C478.105 51.5751 477.943 50.3281 477.666 49.2659C477.389 48.1574 476.95 47.2799 476.35 46.6333C475.749 45.9405 474.941 45.5942 473.925 45.5942C472.262 45.5942 471.177 46.564 470.669 48.5038C470.161 50.4436 469.907 53.2378 469.907 56.8864ZM458.892 38.3893H469.699V42.9616H469.838C470.022 42.3612 470.3 41.7377 470.669 41.0911C471.085 40.3983 471.616 39.7979 472.262 39.2899C472.955 38.7357 473.763 38.2969 474.687 37.9736C475.611 37.6041 476.696 37.4194 477.943 37.4194C479.791 37.4194 481.43 37.7889 482.862 38.5278C484.34 39.2206 485.564 40.3521 486.534 41.9224C487.504 43.4465 488.242 45.4325 488.751 47.8803C489.259 50.3281 489.513 53.3071 489.513 56.8172C489.513 59.7268 489.374 62.4056 489.097 64.8534C488.82 67.3012 488.289 69.4257 487.504 71.2269C486.718 72.982 485.61 74.3675 484.178 75.3836C482.746 76.3535 480.899 76.8384 478.636 76.8384C477.112 76.8384 475.565 76.5152 473.994 75.8686C472.424 75.1758 471.177 73.8133 470.253 71.7812H470.115V88.0614H458.892V38.3893Z" fill="white"/>
<path d="M504.376 64.2992C504.376 65.7771 504.654 66.9548 505.208 67.8323C505.762 68.6637 506.57 69.0793 507.633 69.0793C508.833 69.0793 509.872 68.7098 510.75 67.9709C511.674 67.2319 512.136 65.8926 512.136 63.9528C512.136 62.3825 512.136 61.0893 512.136 60.0732C512.182 59.0571 512.205 58.1565 512.205 57.3714C510.45 58.2951 509.11 58.8955 508.187 59.1726C507.309 59.4035 506.616 59.7268 506.108 60.1425C505.508 60.6043 505.069 61.1586 504.792 61.8052C504.515 62.4056 504.376 63.2369 504.376 64.2992ZM494.608 49.8894C494.654 47.2568 495.024 45.1554 495.717 43.5851C496.456 42.0148 497.495 40.7678 498.834 39.8441C500.174 38.9204 501.652 38.2969 503.268 37.9736C504.931 37.6041 506.94 37.4194 509.295 37.4194C513.914 37.4194 517.285 38.2738 519.41 39.9827C521.534 41.6453 522.597 44.4857 522.597 48.5038V67.763C522.597 69.1948 522.643 70.6958 522.735 72.2661C522.874 73.8364 523.266 75.0372 523.913 75.8686H513.105C512.875 75.222 512.713 74.5292 512.62 73.7902C512.574 73.0513 512.528 72.3123 512.482 71.5733H512.343C511.558 73.236 510.381 74.5292 508.81 75.4529C507.24 76.3766 505.485 76.8384 503.545 76.8384C500.358 76.8384 497.887 75.9609 496.132 74.2059C494.424 72.4047 493.569 69.4719 493.569 65.4076C493.569 63.1907 493.985 61.2509 494.816 59.5883C495.647 57.8794 496.756 56.6324 498.141 55.8473C499.527 55.0621 501.143 54.4617 502.991 54.046C504.884 53.6304 506.616 53.2147 508.187 52.799C509.018 52.5681 509.688 52.3603 510.196 52.1755C510.75 51.9446 511.166 51.6906 511.443 51.4135C511.766 51.0902 511.974 50.6976 512.066 50.2358C512.159 49.7739 512.205 49.1966 512.205 48.5038C512.205 47.3492 511.928 46.4486 511.374 45.802C510.819 45.1092 509.919 44.7628 508.672 44.7628C507.101 44.7628 506.039 45.2247 505.485 46.1484C504.931 47.0259 504.63 48.2729 504.584 49.8894H494.608Z" fill="white"/>
<path d="M529.455 38.3893H540.262V42.823H540.401C541.186 41.1604 542.364 39.8441 543.934 38.8742C545.504 37.9043 547.329 37.4194 549.407 37.4194C552.594 37.4194 555.018 38.2507 556.681 39.9134C558.344 41.576 559.175 44.2086 559.175 47.811V75.8686H547.952V50.305C547.952 48.9657 547.675 47.9265 547.121 47.1875C546.567 46.4024 545.758 46.0098 544.696 46.0098C543.634 46.0098 542.687 46.4486 541.856 47.3261C541.071 48.1574 540.678 49.4968 540.678 51.3442V75.8686H529.455V38.3893Z" fill="white"/>
</svg>
