<svg width="143" height="46" viewBox="0 0 143 46" fill="none" xmlns="http://www.w3.org/2000/svg">
<path d="M59.8426 10.5028L57.7185 13.099V17.6778H54.1705V1.20369H57.7185V9.03951H57.8585L60.1694 5.85326L63.834 1.20369H67.8488L62.3635 7.97742L68.339 17.6778H64.1608L59.8426 10.5028Z" fill="white"/>
<path d="M74.6155 17.961C73.713 17.961 72.9038 17.8115 72.188 17.5126C71.4877 17.2136 70.8886 16.7809 70.3907 16.2145C69.9083 15.648 69.5348 14.9636 69.2703 14.1611C69.0057 13.3586 68.8734 12.4618 68.8734 11.4705C68.8734 10.4792 69.0057 9.58235 69.2703 8.77989C69.5348 7.97742 69.9083 7.30084 70.3907 6.75013C70.8886 6.18368 71.4877 5.75098 72.188 5.45203C72.9038 5.15307 73.713 5.00359 74.6155 5.00359C75.5181 5.00359 76.3195 5.15307 77.0197 5.45203C77.7355 5.75098 78.3346 6.18368 78.817 6.75013C79.315 7.30084 79.6962 7.97742 79.9608 8.77989C80.2253 9.58235 80.3576 10.4792 80.3576 11.4705C80.3576 12.4618 80.2253 13.3586 79.9608 14.1611C79.6962 14.9636 79.315 15.648 78.817 16.2145C78.3346 16.7809 77.7355 17.2136 77.0197 17.5126C76.3195 17.8115 75.5181 17.961 74.6155 17.961ZM74.6155 15.1996C75.3002 15.1996 75.8293 14.9872 76.2028 14.5623C76.5762 14.1375 76.763 13.5317 76.763 12.745V10.2196C76.763 9.43287 76.5762 8.82709 76.2028 8.40226C75.8293 7.97742 75.3002 7.76501 74.6155 7.76501C73.9308 7.76501 73.4017 7.97742 73.0283 8.40226C72.6548 8.82709 72.4681 9.43287 72.4681 10.2196V12.745C72.4681 13.5317 72.6548 14.1375 73.0283 14.5623C73.4017 14.9872 73.9308 15.1996 74.6155 15.1996Z" fill="white"/>
<path d="M87.7675 17.961C86.8494 17.961 86.0324 17.8115 85.3166 17.5126C84.6008 17.1979 84.0017 16.7652 83.5193 16.2145C83.0369 15.648 82.6712 14.9636 82.4222 14.1611C82.1732 13.3586 82.0488 12.4618 82.0488 11.4705C82.0488 10.4792 82.1732 9.59022 82.4222 8.80349C82.6712 8.00103 83.0369 7.31657 83.5193 6.75013C84.0017 6.18368 84.6008 5.75098 85.3166 5.45203C86.0324 5.15307 86.8494 5.00359 87.7675 5.00359C89.0124 5.00359 90.0472 5.28681 90.8719 5.85326C91.7122 6.4197 92.3113 7.2143 92.6692 8.23704L89.8682 9.46434C89.7593 8.9923 89.5337 8.59107 89.1913 8.26065C88.849 7.93022 88.3744 7.76501 87.7675 7.76501C87.0672 7.76501 86.5381 8.00103 86.1802 8.47306C85.8223 8.92937 85.6434 9.55088 85.6434 10.3376V12.6506C85.6434 13.4373 85.8223 14.0588 86.1802 14.5151C86.5381 14.9714 87.0672 15.1996 87.7675 15.1996C88.3899 15.1996 88.8801 15.0344 89.238 14.704C89.6115 14.3578 89.8838 13.9094 90.055 13.3586L92.7393 14.5387C92.3347 15.7188 91.7045 16.5842 90.8486 17.1349C90.0083 17.6857 88.9812 17.961 87.7675 17.961Z" fill="white"/>
<path d="M103.934 17.6778C103.312 17.6778 102.79 17.4811 102.37 17.0877C101.966 16.6944 101.709 16.1673 101.6 15.5064H101.46C101.273 16.3089 100.861 16.9225 100.223 17.3474C99.5847 17.7565 98.7988 17.961 97.8651 17.961C96.6358 17.961 95.6944 17.6306 95.0408 16.9697C94.3872 16.3089 94.0604 15.4356 94.0604 14.3499C94.0604 13.044 94.5273 12.0763 95.4609 11.4469C96.4102 10.8018 97.694 10.4792 99.3123 10.4792H101.25V9.70036C101.25 9.10244 101.094 8.63041 100.783 8.28425C100.472 7.92235 99.9503 7.7414 99.219 7.7414C98.5343 7.7414 97.9896 7.89088 97.585 8.18984C97.1805 8.4888 96.8459 8.82709 96.5814 9.20472L94.5273 7.36378C95.0252 6.62425 95.6477 6.04994 96.3946 5.64084C97.1571 5.21601 98.1842 5.00359 99.4757 5.00359C101.219 5.00359 102.526 5.38909 103.397 6.16008C104.269 6.93108 104.704 8.0561 104.704 9.53515V14.9636H105.848V17.6778H103.934ZM99.1489 15.53C99.7247 15.53 100.215 15.4041 100.619 15.1524C101.04 14.9006 101.25 14.4915 101.25 13.9251V12.4618H99.5691C98.2153 12.4618 97.5384 12.9259 97.5384 13.8543V14.2083C97.5384 14.6646 97.6784 15.0029 97.9585 15.2232C98.2386 15.4277 98.6354 15.53 99.1489 15.53Z" fill="white"/>
<path d="M113.279 17.961C112.345 17.961 111.512 17.8115 110.781 17.5126C110.05 17.1979 109.427 16.7652 108.914 16.2145C108.416 15.648 108.034 14.9636 107.77 14.1611C107.521 13.3586 107.396 12.4618 107.396 11.4705C107.396 10.495 107.521 9.61382 107.77 8.82709C108.019 8.02463 108.385 7.34017 108.867 6.77373C109.365 6.20729 109.972 5.77458 110.688 5.47563C111.403 5.16094 112.22 5.00359 113.138 5.00359C114.15 5.00359 115.014 5.17667 115.729 5.52283C116.461 5.86899 117.052 6.33316 117.503 6.91534C117.97 7.49752 118.305 8.17411 118.507 8.9451C118.725 9.70036 118.834 10.495 118.834 11.3289V12.3674H110.968V12.5562C110.968 13.3744 111.186 14.0274 111.621 14.5151C112.057 14.9872 112.742 15.2232 113.675 15.2232C114.391 15.2232 114.975 15.0816 115.426 14.7984C115.877 14.4994 116.297 14.1454 116.686 13.7363L118.414 15.9076C117.869 16.5528 117.153 17.0563 116.266 17.4182C115.395 17.7801 114.399 17.961 113.279 17.961ZM113.208 7.57619C112.508 7.57619 111.956 7.81221 111.551 8.28425C111.162 8.74055 110.968 9.3542 110.968 10.1252V10.314H115.263V10.1016C115.263 9.34633 115.091 8.74055 114.749 8.28425C114.422 7.81221 113.909 7.57619 113.208 7.57619Z" fill="white"/>
<path d="M124.705 17.6778C123.522 17.6778 122.651 17.3867 122.091 16.8045C121.546 16.2223 121.274 15.3805 121.274 14.2791V0.212417H124.728V14.9636H126.269V17.6778H124.705Z" fill="white"/>
<path d="M130.067 3.96511C129.367 3.96511 128.853 3.80776 128.527 3.49307C128.215 3.16265 128.06 2.74568 128.06 2.24217V1.72293C128.06 1.21943 128.215 0.81033 128.527 0.495638C128.853 0.165213 129.367 0 130.067 0C130.767 0 131.273 0.165213 131.584 0.495638C131.911 0.81033 132.075 1.21943 132.075 1.72293V2.24217C132.075 2.74568 131.911 3.16265 131.584 3.49307C131.273 3.80776 130.767 3.96511 130.067 3.96511ZM128.34 5.28681H131.795V17.6778H128.34V5.28681Z" fill="white"/>
<path d="M54.1705 24.8055H62.0834C63.4372 24.8055 64.4876 25.191 65.2345 25.962C65.997 26.733 66.3783 27.7558 66.3783 29.0303C66.3783 29.6597 66.2927 30.1946 66.1215 30.6352C65.9659 31.0758 65.748 31.4377 65.4679 31.7209C65.2034 32.0041 64.8844 32.2165 64.5109 32.3581C64.153 32.484 63.764 32.5548 63.3438 32.5705V32.7122C63.7329 32.7122 64.1375 32.783 64.5576 32.9246C64.9933 33.0662 65.3901 33.2943 65.748 33.609C66.1059 33.908 66.4016 34.3013 66.635 34.7891C66.884 35.2769 67.0085 35.8748 67.0085 36.5829C67.0085 37.228 66.8995 37.8416 66.6817 38.4238C66.4794 38.9902 66.1915 39.4859 65.818 39.9107C65.4446 40.3356 65.0011 40.6738 64.4876 40.9256C63.9741 41.1616 63.4139 41.2796 62.807 41.2796H54.1705V24.8055ZM57.7185 38.2586H61.8033C62.2701 38.2586 62.6358 38.1327 62.9003 37.881C63.1804 37.6135 63.3205 37.2437 63.3205 36.7717V35.9692C63.3205 35.4972 63.1804 35.1353 62.9003 34.8835C62.6358 34.616 62.2701 34.4823 61.8033 34.4823H57.7185V38.2586ZM57.7185 31.5557H61.2431C61.7099 31.5557 62.0756 31.4219 62.3401 31.1544C62.6047 30.887 62.7369 30.5172 62.7369 30.0451V29.3371C62.7369 28.8651 62.6047 28.4953 62.3401 28.2278C62.0756 27.9603 61.7099 27.8266 61.2431 27.8266H57.7185V31.5557Z" fill="white"/>
<path d="M74.6644 41.5629C73.7307 41.5629 72.8982 41.4134 72.1668 41.1144C71.4354 40.7997 70.813 40.367 70.2995 39.8163C69.8015 39.2499 69.4203 38.5654 69.1557 37.763C68.9068 36.9605 68.7823 36.0636 68.7823 35.0723C68.7823 34.0968 68.9068 33.2157 69.1557 32.4289C69.4047 31.6265 69.7704 30.942 70.2528 30.3756C70.7508 29.8091 71.3576 29.3764 72.0735 29.0775C72.7893 28.7628 73.6062 28.6054 74.5243 28.6054C75.5358 28.6054 76.3995 28.7785 77.1153 29.1247C77.8466 29.4708 78.438 29.935 78.8892 30.5172C79.3561 31.0994 79.6906 31.776 79.8929 32.5469C80.1108 33.3022 80.2197 34.0968 80.2197 34.9307V35.9692H72.3536V36.158C72.3536 36.9762 72.5714 37.6292 73.0071 38.117C73.4428 38.589 74.1275 38.825 75.0612 38.825C75.777 38.825 76.3606 38.6834 76.8118 38.4002C77.2631 38.1013 77.6832 37.7472 78.0723 37.3381L79.7996 39.5095C79.2549 40.1546 78.5391 40.6581 77.6521 41.02C76.7807 41.3819 75.7848 41.5629 74.6644 41.5629ZM74.5944 31.178C73.8941 31.178 73.3417 31.4141 72.9371 31.8861C72.5481 32.3424 72.3536 32.956 72.3536 33.727V33.9159H76.6484V33.7034C76.6484 32.9482 76.4773 32.3424 76.1349 31.8861C75.8081 31.4141 75.2946 31.178 74.5944 31.178Z" fill="white"/>
<path d="M86.9543 41.2796C85.7561 41.2796 84.8458 40.9728 84.2234 40.3592C83.6165 39.7455 83.313 38.8486 83.313 37.6685V31.6029H81.5858V28.8887H82.4494C82.9162 28.8887 83.2352 28.7785 83.4064 28.5582C83.5776 28.3222 83.6632 27.9918 83.6632 27.567V25.5372H86.7676V28.8887H89.1952V31.6029H86.7676V38.5654H89.0084V41.2796H86.9543Z" fill="white"/>
<path d="M96.4756 41.5629C95.573 41.5629 94.7639 41.4134 94.048 41.1144C93.3478 40.8155 92.7487 40.3828 92.2507 39.8163C91.7683 39.2499 91.3949 38.5654 91.1303 37.763C90.8658 36.9605 90.7335 36.0636 90.7335 35.0723C90.7335 34.0811 90.8658 33.1842 91.1303 32.3817C91.3949 31.5793 91.7683 30.9027 92.2507 30.352C92.7487 29.7855 93.3478 29.3528 94.048 29.0539C94.7639 28.7549 95.573 28.6054 96.4756 28.6054C97.3781 28.6054 98.1795 28.7549 98.8798 29.0539C99.5956 29.3528 100.195 29.7855 100.677 30.352C101.175 30.9027 101.556 31.5793 101.821 32.3817C102.085 33.1842 102.218 34.0811 102.218 35.0723C102.218 36.0636 102.085 36.9605 101.821 37.763C101.556 38.5654 101.175 39.2499 100.677 39.8163C100.195 40.3828 99.5956 40.8155 98.8798 41.1144C98.1795 41.4134 97.3781 41.5629 96.4756 41.5629ZM96.4756 38.8014C97.1603 38.8014 97.6893 38.589 98.0628 38.1642C98.4363 37.7394 98.623 37.1336 98.623 36.3468V33.8214C98.623 33.0347 98.4363 32.4289 98.0628 32.0041C97.6893 31.5793 97.1603 31.3669 96.4756 31.3669C95.7909 31.3669 95.2618 31.5793 94.8883 32.0041C94.5149 32.4289 94.3281 33.0347 94.3281 33.8214V36.3468C94.3281 37.1336 94.5149 37.7394 94.8883 38.1642C95.2618 38.589 95.7909 38.8014 96.4756 38.8014Z" fill="white"/>
<path d="M104.679 28.8887H108.134V30.9656H108.25C108.422 30.2733 108.811 29.7069 109.417 29.2663C110.04 28.8257 110.748 28.6054 111.542 28.6054C113.098 28.6054 114.273 29.1561 115.066 30.2576C115.86 31.359 116.257 32.9639 116.257 35.0723C116.257 37.1808 115.86 38.7936 115.066 39.9107C114.273 41.0121 113.098 41.5629 111.542 41.5629C111.137 41.5629 110.756 41.4999 110.398 41.374C110.04 41.2639 109.713 41.1065 109.417 40.902C109.137 40.6817 108.896 40.43 108.694 40.1467C108.492 39.8478 108.344 39.5331 108.25 39.2027H108.134V46H104.679V28.8887ZM110.398 38.7306C111.051 38.7306 111.588 38.5025 112.008 38.0462C112.444 37.5741 112.662 36.9448 112.662 36.158V34.0103C112.662 33.2235 112.444 32.602 112.008 32.1457C111.588 31.6737 111.051 31.4377 110.398 31.4377C109.744 31.4377 109.2 31.6029 108.764 31.9333C108.344 32.248 108.134 32.6886 108.134 33.255V36.9133C108.134 37.4797 108.344 37.9282 108.764 38.2586C109.2 38.5733 109.744 38.7306 110.398 38.7306Z" fill="white"/>
<path d="M127.937 41.2796C127.314 41.2796 126.793 41.0829 126.373 40.6896C125.968 40.2962 125.712 39.7691 125.603 39.1083H125.463C125.276 39.9107 124.863 40.5244 124.225 40.9492C123.587 41.3583 122.802 41.5629 121.868 41.5629C120.639 41.5629 119.697 41.2324 119.044 40.5716C118.39 39.9107 118.063 39.0375 118.063 37.9518C118.063 36.6458 118.53 35.6781 119.464 35.0487C120.413 34.4036 121.697 34.0811 123.315 34.0811H125.252V33.3022C125.252 32.7043 125.097 32.2323 124.786 31.8861C124.474 31.5242 123.953 31.3433 123.222 31.3433C122.537 31.3433 121.992 31.4927 121.588 31.7917C121.183 32.0906 120.849 32.4289 120.584 32.8066L118.53 30.9656C119.028 30.2261 119.65 29.6518 120.397 29.2427C121.16 28.8179 122.187 28.6054 123.478 28.6054C125.221 28.6054 126.528 28.9909 127.4 29.7619C128.271 30.5329 128.707 31.6579 128.707 33.137V38.5654H129.851V41.2796H127.937ZM123.152 39.1319C123.727 39.1319 124.218 39.006 124.622 38.7542C125.042 38.5025 125.252 38.0934 125.252 37.5269V36.0636H123.572C122.218 36.0636 121.541 36.5278 121.541 37.4561V37.8102C121.541 38.2665 121.681 38.6048 121.961 38.825C122.241 39.0296 122.638 39.1319 123.152 39.1319Z" fill="white"/>
<path d="M132.169 41.2796V28.8887H135.624V30.9892H135.764C135.982 30.3441 136.363 29.7855 136.908 29.3135C137.452 28.8415 138.207 28.6054 139.172 28.6054C140.432 28.6054 141.382 29.0303 142.02 29.8799C142.673 30.7296 143 31.9412 143 33.5146V41.2796H139.545V33.7978C139.545 32.9954 139.421 32.4053 139.172 32.0277C138.923 31.6343 138.479 31.4377 137.841 31.4377C137.561 31.4377 137.289 31.477 137.025 31.5557C136.76 31.6186 136.519 31.7287 136.301 31.8861C136.099 32.0434 135.935 32.2401 135.811 32.4761C135.686 32.6964 135.624 32.956 135.624 33.255V41.2796H132.169Z" fill="white"/>
<path d="M16.4997 11.6147C16.7546 11.4166 17.0671 11.3092 17.3886 11.3092H43.0698C44.4631 11.3092 45.0635 13.0955 43.9587 13.954L28.1379 26.2466C27.883 26.4447 27.5705 26.5521 27.249 26.5521H1.56783C0.174466 26.5521 -0.425909 24.7658 0.678927 23.9073L16.4997 11.6147Z" fill="#3E8648"/>
<path d="M16.4945 5.72819C16.7524 5.52133 17.0719 5.40876 17.4011 5.40876H43.1759C44.5579 5.40876 45.1652 7.1711 44.0825 8.03956L28.1431 20.8239C27.8852 21.0307 27.5657 21.1433 27.2365 21.1433H1.46173C0.0796749 21.1433 -0.527651 19.381 0.555128 18.5125L16.4945 5.72819Z" fill="#6DB177"/>
<path d="M16.4997 0.305451C16.7546 0.107379 17.0671 0 17.3886 0L43.0698 0C44.4631 0 45.0635 1.78633 43.9587 2.64478L28.1379 14.9374C27.883 15.1355 27.5705 15.2429 27.249 15.2429H1.56783C0.174466 15.2429 -0.425909 13.4565 0.678927 12.5981L16.4997 0.305451Z" fill="#82C28C"/>
</svg>
