<svg width="255" height="82" viewBox="0 0 255 82" fill="none" xmlns="http://www.w3.org/2000/svg">
<path d="M69.0491 12.1011L66.5982 15.0924V20.3679H62.5045V1.38687H66.5982V10.4151H66.7598L69.4262 6.74397L73.6546 1.38687H78.2871L71.9579 9.19138L78.8526 20.3679H74.0317L69.0491 12.1011Z" fill="white"/>
<path d="M86.0948 20.6942C85.0534 20.6942 84.1198 20.522 83.2938 20.1775C82.4858 19.8331 81.7946 19.3345 81.22 18.6819C80.6634 18.0292 80.2325 17.2406 79.9272 16.3161C79.622 15.3915 79.4694 14.3581 79.4694 13.216C79.4694 12.0739 79.622 11.0405 79.9272 10.116C80.2325 9.19138 80.6634 8.41183 81.22 7.77732C81.7946 7.12468 82.4858 6.62613 83.2938 6.28168C84.1198 5.93723 85.0534 5.76501 86.0948 5.76501C87.1362 5.76501 88.0609 5.93723 88.8689 6.28168C89.6948 6.62613 90.3861 7.12468 90.9427 7.77732C91.5173 8.41183 91.9572 9.19138 92.2624 10.116C92.5677 11.0405 92.7203 12.0739 92.7203 13.216C92.7203 14.3581 92.5677 15.3915 92.2624 16.3161C91.9572 17.2406 91.5173 18.0292 90.9427 18.6819C90.3861 19.3345 89.6948 19.8331 88.8689 20.1775C88.0609 20.522 87.1362 20.6942 86.0948 20.6942ZM86.0948 17.5126C86.8848 17.5126 87.4953 17.2678 87.9263 16.7783C88.3572 16.2889 88.5726 15.5909 88.5726 14.6845V11.7748C88.5726 10.8683 88.3572 10.1703 87.9263 9.68086C87.4953 9.19138 86.8848 8.94664 86.0948 8.94664C85.3048 8.94664 84.6943 9.19138 84.2634 9.68086C83.8325 10.1703 83.617 10.8683 83.617 11.7748V14.6845C83.617 15.5909 83.8325 16.2889 84.2634 16.7783C84.6943 17.2678 85.3048 17.5126 86.0948 17.5126Z" fill="white"/>
<path d="M101.27 20.6942C100.211 20.6942 99.2682 20.522 98.4422 20.1775C97.6163 19.8149 96.925 19.3164 96.3684 18.6819C95.8118 18.0292 95.3898 17.2406 95.1026 16.3161C94.8153 15.3915 94.6716 14.3581 94.6716 13.216C94.6716 12.0739 94.8153 11.0496 95.1026 10.1431C95.3898 9.21857 95.8118 8.42996 96.3684 7.77732C96.925 7.12468 97.6163 6.62613 98.4422 6.28168C99.2682 5.93723 100.211 5.76501 101.27 5.76501C102.707 5.76501 103.901 6.09133 104.852 6.74397C105.822 7.39661 106.513 8.31213 106.926 9.49051L103.694 10.9046C103.568 10.3607 103.308 9.89841 102.913 9.5177C102.518 9.13699 101.97 8.94664 101.27 8.94664C100.462 8.94664 99.8517 9.21857 99.4387 9.76244C99.0258 10.2882 98.8193 11.0043 98.8193 11.9107V14.5757C98.8193 15.4821 99.0258 16.1982 99.4387 16.724C99.8517 17.2497 100.462 17.5126 101.27 17.5126C101.988 17.5126 102.554 17.3222 102.967 16.9415C103.398 16.5427 103.712 16.026 103.91 15.3915L107.007 16.7512C106.54 18.1108 105.813 19.1079 104.825 19.7424C103.856 20.3769 102.671 20.6942 101.27 20.6942Z" fill="white"/>
<path d="M119.924 20.3679C119.206 20.3679 118.604 20.1413 118.119 19.688C117.653 19.2348 117.356 18.6275 117.231 17.8661H117.069C116.854 18.7907 116.378 19.4977 115.642 19.9872C114.905 20.4585 113.999 20.6942 112.921 20.6942C111.503 20.6942 110.417 20.3135 109.662 19.5521C108.908 18.7907 108.531 17.7845 108.531 16.5336C108.531 15.0289 109.07 13.914 110.147 13.1888C111.243 12.4455 112.724 12.0739 114.591 12.0739H116.827V11.1765C116.827 10.4876 116.647 9.94373 116.288 9.54489C115.929 9.12793 115.327 8.91945 114.483 8.91945C113.693 8.91945 113.065 9.09167 112.598 9.43612C112.131 9.78057 111.745 10.1703 111.44 10.6054L109.07 8.48435C109.644 7.63229 110.363 6.97058 111.225 6.49923C112.104 6.00975 113.289 5.76501 114.78 5.76501C116.791 5.76501 118.299 6.20917 119.304 7.09749C120.31 7.9858 120.813 9.28202 120.813 10.9861V17.2406H122.132V20.3679H119.924ZM114.403 17.8933C115.067 17.8933 115.633 17.7482 116.099 17.4582C116.584 17.1681 116.827 16.6968 116.827 16.0441V14.3581H114.887C113.325 14.3581 112.544 14.8929 112.544 15.9625V16.3704C112.544 16.8962 112.706 17.286 113.029 17.5398C113.352 17.7754 113.81 17.8933 114.403 17.8933Z" fill="white"/>
<path d="M130.706 20.6942C129.629 20.6942 128.668 20.522 127.824 20.1775C126.98 19.8149 126.262 19.3164 125.67 18.6819C125.095 18.0292 124.655 17.2406 124.35 16.3161C124.063 15.3915 123.919 14.3581 123.919 13.216C123.919 12.092 124.063 11.0768 124.35 10.1703C124.637 9.24577 125.059 8.45716 125.616 7.80452C126.19 7.15187 126.891 6.65333 127.716 6.30888C128.542 5.9463 129.485 5.76501 130.544 5.76501C131.711 5.76501 132.708 5.96443 133.534 6.36326C134.378 6.7621 135.06 7.2969 135.581 7.96768C136.119 8.63845 136.506 9.41799 136.739 10.3063C136.99 11.1765 137.116 12.092 137.116 13.0528V14.2494H128.04V14.4669C128.04 15.4096 128.291 16.162 128.794 16.724C129.297 17.2678 130.087 17.5398 131.164 17.5398C131.99 17.5398 132.663 17.3766 133.184 17.0503C133.704 16.7058 134.189 16.2979 134.638 15.8266L136.631 18.3284C136.003 19.0717 135.177 19.6518 134.153 20.0688C133.148 20.4857 131.999 20.6942 130.706 20.6942ZM130.625 8.72909C129.817 8.72909 129.18 9.00103 128.713 9.54489C128.264 10.0706 128.04 10.7777 128.04 11.666V11.8835H132.995V11.6388C132.995 10.7686 132.798 10.0706 132.403 9.54489C132.026 9.00103 131.433 8.72909 130.625 8.72909Z" fill="white"/>
<path d="M143.89 20.3679C142.526 20.3679 141.52 20.0325 140.874 19.3617C140.245 18.691 139.931 17.7211 139.931 16.452V0.244741H143.917V17.2406H145.695V20.3679H143.89Z" fill="white"/>
<path d="M150.078 4.5685C149.27 4.5685 148.677 4.38721 148.3 4.02463C147.941 3.64392 147.761 3.1635 147.761 2.58338V1.98512C147.761 1.40499 147.941 0.933641 148.3 0.571061C148.677 0.190354 149.27 0 150.078 0C150.886 0 151.469 0.190354 151.828 0.571061C152.205 0.933641 152.394 1.40499 152.394 1.98512V2.58338C152.394 3.1635 152.205 3.64392 151.828 4.02463C151.469 4.38721 150.886 4.5685 150.078 4.5685ZM148.085 6.09133H152.071V20.3679H148.085V6.09133Z" fill="white"/>
<path d="M62.5045 28.5803H71.6347C73.1968 28.5803 74.4087 29.0245 75.2706 29.9128C76.1504 30.8011 76.5903 31.9795 76.5903 33.4479C76.5903 34.1731 76.4915 34.7895 76.294 35.2971C76.1145 35.8047 75.8631 36.2217 75.5399 36.548C75.2347 36.8743 74.8666 37.119 74.4357 37.2822C74.0227 37.4272 73.5738 37.5088 73.089 37.5269V37.6901C73.5379 37.6901 74.0048 37.7717 74.4895 37.9348C74.9923 38.098 75.4501 38.3609 75.8631 38.7234C76.2761 39.0679 76.6172 39.5211 76.8866 40.0831C77.1738 40.6451 77.3175 41.334 77.3175 42.1498C77.3175 42.8931 77.1918 43.6001 76.9404 44.2709C76.707 44.9235 76.3748 45.4946 75.9439 45.9841C75.513 46.4736 75.0013 46.8633 74.4087 47.1534C73.8162 47.4253 73.1698 47.5613 72.4696 47.5613H62.5045V28.5803ZM66.5982 44.0806H71.3115C71.8501 44.0806 72.2721 43.9355 72.5773 43.6455C72.9005 43.3373 73.0621 42.9112 73.0621 42.3674V41.4428C73.0621 40.8989 72.9005 40.482 72.5773 40.1919C72.2721 39.8837 71.8501 39.7296 71.3115 39.7296H66.5982V44.0806ZM66.5982 36.3576H70.6651C71.2037 36.3576 71.6257 36.2035 71.9309 35.8953C72.2362 35.5871 72.3888 35.1611 72.3888 34.6172V33.8014C72.3888 33.2576 72.2362 32.8315 71.9309 32.5233C71.6257 32.2151 71.2037 32.0611 70.6651 32.0611H66.5982V36.3576Z" fill="white"/>
<path d="M86.1512 47.8876C85.0739 47.8876 84.1133 47.7154 83.2694 47.371C82.4255 47.0084 81.7073 46.5098 81.1148 45.8753C80.5402 45.2227 80.1003 44.4341 79.7951 43.5095C79.5078 42.5849 79.3642 41.5516 79.3642 40.4094C79.3642 39.2854 79.5078 38.2702 79.7951 37.3638C80.0824 36.4392 80.5043 35.6506 81.0609 34.9979C81.6355 34.3453 82.3357 33.8468 83.1617 33.5023C83.9876 33.1397 84.9303 32.9584 85.9896 32.9584C87.1567 32.9584 88.1532 33.1579 88.9792 33.5567C89.823 33.9555 90.5053 34.4903 91.026 35.1611C91.5647 35.8319 91.9507 36.6114 92.1842 37.4997C92.4355 38.3699 92.5612 39.2854 92.5612 40.2463V41.4428H83.4849V41.6603C83.4849 42.603 83.7362 43.3554 84.239 43.9174C84.7417 44.4613 85.5318 44.7332 86.6091 44.7332C87.435 44.7332 88.1083 44.57 88.629 44.2437C89.1497 43.8993 89.6345 43.4914 90.0834 43.02L92.0764 45.5218C91.448 46.2651 90.622 46.8452 89.5986 47.2622C88.5931 47.6792 87.444 47.8876 86.1512 47.8876ZM86.0704 35.9225C85.2624 35.9225 84.625 36.1945 84.1582 36.7383C83.7093 37.2641 83.4849 37.9711 83.4849 38.8594V39.077H88.4405V38.8322C88.4405 37.962 88.243 37.2641 87.848 36.7383C87.4709 36.1945 86.8784 35.9225 86.0704 35.9225Z" fill="white"/>
<path d="M100.332 47.5613C98.9494 47.5613 97.899 47.2078 97.1808 46.5008C96.4806 45.7937 96.1304 44.7604 96.1304 43.4007V36.412H94.1374V33.2848H95.1339C95.6726 33.2848 96.0407 33.1579 96.2382 32.9041C96.4357 32.6321 96.5344 32.2514 96.5344 31.7619V29.4233H100.116V33.2848H102.917V36.412H100.116V44.4341H102.702V47.5613H100.332Z" fill="white"/>
<path d="M111.318 47.8876C110.277 47.8876 109.343 47.7154 108.517 47.371C107.709 47.0265 107.018 46.528 106.443 45.8753C105.887 45.2227 105.456 44.4341 105.15 43.5095C104.845 42.5849 104.693 41.5516 104.693 40.4094C104.693 39.2673 104.845 38.234 105.15 37.3094C105.456 36.3848 105.887 35.6053 106.443 34.9708C107.018 34.3181 107.709 33.8196 108.517 33.4751C109.343 33.1307 110.277 32.9584 111.318 32.9584C112.359 32.9584 113.284 33.1307 114.092 33.4751C114.918 33.8196 115.609 34.3181 116.166 34.9708C116.74 35.6053 117.18 36.3848 117.486 37.3094C117.791 38.234 117.943 39.2673 117.943 40.4094C117.943 41.5516 117.791 42.5849 117.486 43.5095C117.18 44.4341 116.74 45.2227 116.166 45.8753C115.609 46.528 114.918 47.0265 114.092 47.371C113.284 47.7154 112.359 47.8876 111.318 47.8876ZM111.318 44.706C112.108 44.706 112.718 44.4613 113.149 43.9718C113.58 43.4823 113.796 42.7843 113.796 41.8779V38.9682C113.796 38.0617 113.58 37.3638 113.149 36.8743C112.718 36.3848 112.108 36.1401 111.318 36.1401C110.528 36.1401 109.917 36.3848 109.487 36.8743C109.056 37.3638 108.84 38.0617 108.84 38.9682V41.8779C108.84 42.7843 109.056 43.4823 109.487 43.9718C109.917 44.4613 110.528 44.706 111.318 44.706Z" fill="white"/>
<path d="M120.784 33.2848H124.77V35.6778H124.904C125.102 34.8801 125.551 34.2275 126.251 33.7199C126.969 33.2122 127.786 32.9584 128.702 32.9584C130.497 32.9584 131.853 33.593 132.769 34.862C133.684 36.131 134.142 37.9802 134.142 40.4094C134.142 42.8387 133.684 44.6969 132.769 45.9841C131.853 47.2531 130.497 47.8876 128.702 47.8876C128.235 47.8876 127.795 47.8151 127.382 47.6701C126.969 47.5432 126.592 47.3619 126.251 47.1262C125.928 46.8724 125.649 46.5824 125.416 46.256C125.183 45.9116 125.012 45.549 124.904 45.1683H124.77V53H120.784V33.2848ZM127.382 44.6244C128.136 44.6244 128.756 44.3616 129.24 43.8358C129.743 43.2919 129.995 42.5668 129.995 41.6603V39.1857C129.995 38.2793 129.743 37.5632 129.24 37.0375C128.756 36.4936 128.136 36.2217 127.382 36.2217C126.628 36.2217 126 36.412 125.497 36.7927C125.012 37.1553 124.77 37.6629 124.77 38.3155V42.5305C124.77 43.1832 125.012 43.6998 125.497 44.0806C126 44.4431 126.628 44.6244 127.382 44.6244Z" fill="white"/>
<path d="M147.619 47.5613C146.901 47.5613 146.3 47.3347 145.815 46.8815C145.348 46.4283 145.052 45.8209 144.926 45.0595H144.764C144.549 45.9841 144.073 46.6911 143.337 47.1806C142.601 47.652 141.694 47.8876 140.617 47.8876C139.198 47.8876 138.112 47.5069 137.358 46.7455C136.604 45.9841 136.227 44.9779 136.227 43.727C136.227 42.2223 136.765 41.1074 137.843 40.3822C138.938 39.639 140.419 39.2673 142.287 39.2673H144.522V38.3699C144.522 37.681 144.343 37.1372 143.983 36.7383C143.624 36.3214 143.023 36.1129 142.179 36.1129C141.389 36.1129 140.76 36.2851 140.294 36.6296C139.827 36.974 139.441 37.3638 139.136 37.7989L136.765 35.6778C137.34 34.8257 138.058 34.164 138.92 33.6927C139.8 33.2032 140.985 32.9584 142.475 32.9584C144.486 32.9584 145.994 33.4026 147 34.2909C148.005 35.1792 148.508 36.4755 148.508 38.1796V44.4341H149.828V47.5613H147.619ZM142.098 45.0867C142.762 45.0867 143.328 44.9417 143.795 44.6516C144.28 44.3616 144.522 43.8902 144.522 43.2376V41.5516H142.583C141.021 41.5516 140.24 42.0864 140.24 43.156V43.5639C140.24 44.0896 140.401 44.4794 140.725 44.7332C141.048 44.9689 141.506 45.0867 142.098 45.0867Z" fill="white"/>
<path d="M152.503 47.5613V33.2848H156.489V35.705H156.651C156.902 34.9617 157.342 34.3181 157.971 33.7742C158.599 33.2304 159.47 32.9584 160.583 32.9584C162.037 32.9584 163.133 33.4479 163.869 34.4269C164.623 35.4058 165 36.8018 165 38.6147V47.5613H161.014V38.941C161.014 38.0164 160.87 37.3366 160.583 36.9015C160.296 36.4483 159.784 36.2217 159.048 36.2217C158.725 36.2217 158.41 36.267 158.105 36.3576C157.8 36.4301 157.522 36.557 157.27 36.7383C157.037 36.9196 156.848 37.1462 156.705 37.4182C156.561 37.672 156.489 37.9711 156.489 38.3155V47.5613H152.503Z" fill="white"/>
<path d="M19.0381 13.3821C19.3322 13.1539 19.6928 13.0302 20.0637 13.0302H49.6959C51.3036 13.0302 51.9963 15.0883 50.7215 16.0774L32.4668 30.2407C32.1727 30.4689 31.8121 30.5926 31.4412 30.5926H1.80903C0.201307 30.5926 -0.491434 28.5345 0.783378 27.5454L19.0381 13.3821Z" fill="#3E8648"/>
<path d="M19.0321 6.59987C19.3297 6.36154 19.6984 6.23183 20.0782 6.23183H49.8183C51.413 6.23183 52.1137 8.26236 50.8644 9.26297L32.4728 23.9927C32.1752 24.2311 31.8065 24.3608 31.4267 24.3608H1.68662C0.0919325 24.3608 -0.608828 22.3303 0.640532 21.3296L19.0321 6.59987Z" fill="#6DB177"/>
<path d="M19.0381 0.351933C19.3322 0.12372 19.6928 0 20.0637 0L49.6959 0C51.3036 0 51.9963 2.05816 50.7215 3.04725L32.4668 17.2105C32.1727 17.4387 31.8121 17.5624 31.4412 17.5624H1.80903C0.201307 17.5624 -0.491434 15.5043 0.783378 14.5152L19.0381 0.351933Z" fill="#82C28C"/>
</svg>
