<svg width="45" height="27" viewBox="0 0 45 27" fill="none" xmlns="http://www.w3.org/2000/svg">
<path d="M16.4997 11.6147C16.7546 11.4166 17.0671 11.3092 17.3886 11.3092H43.0698C44.4631 11.3092 45.0635 13.0955 43.9587 13.954L28.1379 26.2466C27.883 26.4447 27.5705 26.5521 27.249 26.5521H1.56783C0.174466 26.5521 -0.425909 24.7658 0.678927 23.9073L16.4997 11.6147Z" fill="#3E8648"/>
<path d="M16.4945 5.72819C16.7524 5.52133 17.0719 5.40876 17.4011 5.40876H43.1759C44.5579 5.40876 45.1652 7.1711 44.0825 8.03956L28.1431 20.8239C27.8852 21.0307 27.5657 21.1433 27.2365 21.1433H1.46173C0.0796748 21.1433 -0.527651 19.381 0.555128 18.5125L16.4945 5.72819Z" fill="#6DB177"/>
<path d="M16.4997 0.305451C16.7546 0.107379 17.0671 0 17.3886 0L43.0698 0C44.4631 0 45.0635 1.78633 43.9587 2.64478L28.1379 14.9374C27.883 15.1355 27.5705 15.2429 27.249 15.2429H1.56783C0.174466 15.2429 -0.425909 13.4565 0.678927 12.5981L16.4997 0.305451Z" fill="#82C28C"/>
</svg>
